M48
; DRILL file {KiCad (5.1.9)-1} date 05/03/21 12:15:23
; FORMAT={-:-/ absolute / metric / decimal}
; #@! TF.CreationDate,2021-05-03T12:15:23+12:00
; #@! TF.GenerationSoftware,Kicad,Pcbnew,(5.1.9)-1
; #@! TF.FileFunction,Plated,1,2,PTH
FMAT,2
METRIC
T1C0.400
T2C0.762
T3C0.800
T4C1.000
%
G90
G05
T1
X44.958Y-72.644
X48.768Y-90.17
X57.15Y-85.09
X68.834Y-83.82
X69.85Y-75.438
X70.104Y-83.82
X86.614Y-101.6
X88.392Y-101.6
T2
X44.45Y-49.53
X44.45Y-52.07
X44.45Y-54.61
X44.45Y-57.15
X44.45Y-59.69
X44.45Y-62.23
X44.45Y-91.44
X44.45Y-93.98
X44.45Y-96.52
X44.45Y-99.06
X44.45Y-101.6
X44.45Y-104.14
X57.15Y-49.53
X57.15Y-52.07
X57.15Y-54.61
X57.15Y-57.15
X57.15Y-59.69
X57.15Y-62.23
X57.15Y-91.44
X57.15Y-93.98
X57.15Y-96.52
X57.15Y-99.06
X57.15Y-101.6
X57.15Y-104.14
X65.274Y-52.07
X65.274Y-54.61
X65.274Y-57.15
X65.274Y-59.69
X65.274Y-62.23
X65.274Y-64.77
X65.274Y-67.31
X65.274Y-69.85
X65.274Y-72.39
X65.274Y-74.93
X65.274Y-77.47
X65.274Y-80.01
X65.274Y-82.55
X65.274Y-85.09
X65.274Y-87.63
X65.274Y-90.17
X65.274Y-92.71
X65.274Y-95.25
X65.274Y-97.79
X90.674Y-52.07
X90.674Y-54.61
X90.674Y-57.15
X90.674Y-59.69
X90.674Y-62.23
X90.674Y-64.77
X90.674Y-67.31
X90.674Y-69.85
X90.674Y-72.39
X90.674Y-74.93
X90.674Y-77.47
X90.674Y-80.01
X90.674Y-82.55
X90.674Y-85.09
X90.674Y-87.63
X90.674Y-90.17
X90.674Y-92.71
X90.674Y-95.25
X90.674Y-97.79
X97.79Y-49.53
X97.79Y-52.07
X97.79Y-54.61
X97.79Y-57.15
X97.79Y-59.69
X97.79Y-62.23
X97.79Y-91.44
X97.79Y-93.98
X97.79Y-96.52
X97.79Y-99.06
X97.79Y-101.6
X97.79Y-104.14
X110.49Y-49.53
X110.49Y-52.07
X110.49Y-54.61
X110.49Y-57.15
X110.49Y-59.69
X110.49Y-62.23
X110.49Y-91.44
X110.49Y-93.98
X110.49Y-96.52
X110.49Y-99.06
X110.49Y-101.6
X110.49Y-104.14
T3
X38.1Y-66.04
X38.1Y-69.85
X38.1Y-107.95
X38.1Y-111.76
X41.91Y-74.93
X41.91Y-78.74
X41.91Y-82.55
X48.26Y-66.04
X48.26Y-69.85
X48.26Y-107.95
X48.26Y-111.76
X50.8Y-66.04
X50.8Y-69.85
X50.8Y-107.95
X50.8Y-111.76
X52.07Y-74.93
X52.07Y-78.74
X52.07Y-82.55
X60.96Y-66.04
X60.96Y-69.85
X60.96Y-107.95
X60.96Y-111.76
X78.74Y-52.07
X78.74Y-62.23
X78.74Y-96.52
X78.74Y-106.68
X82.55Y-52.07
X82.55Y-62.23
X82.55Y-96.52
X82.55Y-106.68
X95.25Y-66.04
X95.25Y-69.85
X95.25Y-107.95
X95.25Y-111.76
X102.87Y-74.93
X102.87Y-78.74
X102.87Y-82.55
X105.41Y-66.04
X105.41Y-69.85
X105.41Y-107.95
X105.41Y-111.76
X107.95Y-66.04
X107.95Y-69.85
X107.95Y-107.95
X107.95Y-111.76
X113.03Y-74.93
X113.03Y-78.74
X113.03Y-82.55
X118.11Y-66.04
X118.11Y-69.85
X118.11Y-107.95
X118.11Y-111.76
T4
X38.1Y-49.53
X38.1Y-52.07
X38.1Y-54.61
X38.1Y-57.15
X38.1Y-59.69
X38.1Y-62.23
X38.1Y-73.66
X38.1Y-76.2
X38.1Y-78.74
X38.1Y-81.28
X38.1Y-91.44
X38.1Y-93.98
X38.1Y-96.52
X38.1Y-99.06
X38.1Y-101.6
X38.1Y-104.14
X55.88Y-74.93
X55.88Y-77.47
X73.66Y-45.72
X73.66Y-110.49
X76.2Y-45.72
X76.2Y-110.49
X78.74Y-45.72
X78.74Y-110.49
X81.28Y-45.72
X81.28Y-110.49
X99.06Y-74.93
X99.06Y-77.47
X118.11Y-49.53
X118.11Y-52.07
X118.11Y-54.61
X118.11Y-57.15
X118.11Y-59.69
X118.11Y-62.23
X118.11Y-73.66
X118.11Y-76.2
X118.11Y-78.74
X118.11Y-81.28
X118.11Y-91.44
X118.11Y-93.98
X118.11Y-96.52
X118.11Y-99.06
X118.11Y-101.6
X118.11Y-104.14
T4
X62.58Y-40.91G85X62.58Y-42.91
G05
X64.58Y-46.61G85X66.58Y-46.61
G05
X68.58Y-40.91G85X68.58Y-42.91
G05
T0
M30
