G04 #@! TF.GenerationSoftware,KiCad,Pcbnew,(5.1.9)-1*
G04 #@! TF.CreationDate,2021-05-03T12:15:15+12:00*
G04 #@! TF.ProjectId,Mobile robot electronics,4d6f6269-6c65-4207-926f-626f7420656c,rev?*
G04 #@! TF.SameCoordinates,Original*
G04 #@! TF.FileFunction,Legend,Top*
G04 #@! TF.FilePolarity,Positive*
%FSLAX46Y46*%
G04 Gerber Fmt 4.6, Leading zero omitted, Abs format (unit mm)*
G04 Created by KiCad (PCBNEW (5.1.9)-1) date 2021-05-03 12:15:15*
%MOMM*%
%LPD*%
G01*
G04 APERTURE LIST*
%ADD10C,0.150000*%
%ADD11C,0.120000*%
%ADD12C,0.400000*%
%ADD13C,4.300000*%
%ADD14C,1.524000*%
%ADD15R,3.500000X3.500000*%
%ADD16O,1.700000X1.700000*%
%ADD17R,1.700000X1.700000*%
%ADD18C,1.600000*%
%ADD19O,1.600000X1.600000*%
G04 APERTURE END LIST*
D10*
X120991333Y-90353428D02*
X120991333Y-90829619D01*
X120705619Y-90258190D02*
X121705619Y-90591523D01*
X120705619Y-90924857D01*
X121229428Y-93115333D02*
X121181809Y-93258190D01*
X121134190Y-93305809D01*
X121038952Y-93353428D01*
X120896095Y-93353428D01*
X120800857Y-93305809D01*
X120753238Y-93258190D01*
X120705619Y-93162952D01*
X120705619Y-92781999D01*
X121705619Y-92781999D01*
X121705619Y-93115333D01*
X121658000Y-93210571D01*
X121610380Y-93258190D01*
X121515142Y-93305809D01*
X121419904Y-93305809D01*
X121324666Y-93258190D01*
X121277047Y-93210571D01*
X121229428Y-93115333D01*
X121229428Y-92781999D01*
X121658000Y-95829619D02*
X121705619Y-95734380D01*
X121705619Y-95591523D01*
X121658000Y-95448666D01*
X121562761Y-95353428D01*
X121467523Y-95305809D01*
X121277047Y-95258190D01*
X121134190Y-95258190D01*
X120943714Y-95305809D01*
X120848476Y-95353428D01*
X120753238Y-95448666D01*
X120705619Y-95591523D01*
X120705619Y-95686761D01*
X120753238Y-95829619D01*
X120800857Y-95877238D01*
X121134190Y-95877238D01*
X121134190Y-95686761D01*
X121705619Y-97686761D02*
X120705619Y-98020095D01*
X121705619Y-98353428D01*
X121229428Y-100210571D02*
X121229428Y-100543904D01*
X120705619Y-100686761D02*
X120705619Y-100210571D01*
X121705619Y-100210571D01*
X121705619Y-100686761D01*
X120991333Y-101067714D02*
X120991333Y-101543904D01*
X120705619Y-100972476D02*
X121705619Y-101305809D01*
X120705619Y-101639142D01*
X121229428Y-102734380D02*
X121229428Y-103067714D01*
X120705619Y-103210571D02*
X120705619Y-102734380D01*
X121705619Y-102734380D01*
X121705619Y-103210571D01*
X121229428Y-103972476D02*
X121181809Y-104115333D01*
X121134190Y-104162952D01*
X121038952Y-104210571D01*
X120896095Y-104210571D01*
X120800857Y-104162952D01*
X120753238Y-104115333D01*
X120705619Y-104020095D01*
X120705619Y-103639142D01*
X121705619Y-103639142D01*
X121705619Y-103972476D01*
X121658000Y-104067714D01*
X121610380Y-104115333D01*
X121515142Y-104162952D01*
X121419904Y-104162952D01*
X121324666Y-104115333D01*
X121277047Y-104067714D01*
X121229428Y-103972476D01*
X121229428Y-103639142D01*
X120737333Y-49459428D02*
X120737333Y-49935619D01*
X120451619Y-49364190D02*
X121451619Y-49697523D01*
X120451619Y-50030857D01*
X120975428Y-52221333D02*
X120927809Y-52364190D01*
X120880190Y-52411809D01*
X120784952Y-52459428D01*
X120642095Y-52459428D01*
X120546857Y-52411809D01*
X120499238Y-52364190D01*
X120451619Y-52268952D01*
X120451619Y-51887999D01*
X121451619Y-51887999D01*
X121451619Y-52221333D01*
X121404000Y-52316571D01*
X121356380Y-52364190D01*
X121261142Y-52411809D01*
X121165904Y-52411809D01*
X121070666Y-52364190D01*
X121023047Y-52316571D01*
X120975428Y-52221333D01*
X120975428Y-51887999D01*
X121404000Y-54935619D02*
X121451619Y-54840380D01*
X121451619Y-54697523D01*
X121404000Y-54554666D01*
X121308761Y-54459428D01*
X121213523Y-54411809D01*
X121023047Y-54364190D01*
X120880190Y-54364190D01*
X120689714Y-54411809D01*
X120594476Y-54459428D01*
X120499238Y-54554666D01*
X120451619Y-54697523D01*
X120451619Y-54792761D01*
X120499238Y-54935619D01*
X120546857Y-54983238D01*
X120880190Y-54983238D01*
X120880190Y-54792761D01*
X121451619Y-56792761D02*
X120451619Y-57126095D01*
X121451619Y-57459428D01*
X120975428Y-59316571D02*
X120975428Y-59649904D01*
X120451619Y-59792761D02*
X120451619Y-59316571D01*
X121451619Y-59316571D01*
X121451619Y-59792761D01*
X120737333Y-60173714D02*
X120737333Y-60649904D01*
X120451619Y-60078476D02*
X121451619Y-60411809D01*
X120451619Y-60745142D01*
X120975428Y-61840380D02*
X120975428Y-62173714D01*
X120451619Y-62316571D02*
X120451619Y-61840380D01*
X121451619Y-61840380D01*
X121451619Y-62316571D01*
X120975428Y-63078476D02*
X120927809Y-63221333D01*
X120880190Y-63268952D01*
X120784952Y-63316571D01*
X120642095Y-63316571D01*
X120546857Y-63268952D01*
X120499238Y-63221333D01*
X120451619Y-63126095D01*
X120451619Y-62745142D01*
X121451619Y-62745142D01*
X121451619Y-63078476D01*
X121404000Y-63173714D01*
X121356380Y-63221333D01*
X121261142Y-63268952D01*
X121165904Y-63268952D01*
X121070666Y-63221333D01*
X121023047Y-63173714D01*
X120975428Y-63078476D01*
X120975428Y-62745142D01*
X34885333Y-49205428D02*
X34885333Y-49681619D01*
X34599619Y-49110190D02*
X35599619Y-49443523D01*
X34599619Y-49776857D01*
X35123428Y-51967333D02*
X35075809Y-52110190D01*
X35028190Y-52157809D01*
X34932952Y-52205428D01*
X34790095Y-52205428D01*
X34694857Y-52157809D01*
X34647238Y-52110190D01*
X34599619Y-52014952D01*
X34599619Y-51634000D01*
X35599619Y-51634000D01*
X35599619Y-51967333D01*
X35552000Y-52062571D01*
X35504380Y-52110190D01*
X35409142Y-52157809D01*
X35313904Y-52157809D01*
X35218666Y-52110190D01*
X35171047Y-52062571D01*
X35123428Y-51967333D01*
X35123428Y-51634000D01*
X35552000Y-54681619D02*
X35599619Y-54586380D01*
X35599619Y-54443523D01*
X35552000Y-54300666D01*
X35456761Y-54205428D01*
X35361523Y-54157809D01*
X35171047Y-54110190D01*
X35028190Y-54110190D01*
X34837714Y-54157809D01*
X34742476Y-54205428D01*
X34647238Y-54300666D01*
X34599619Y-54443523D01*
X34599619Y-54538761D01*
X34647238Y-54681619D01*
X34694857Y-54729238D01*
X35028190Y-54729238D01*
X35028190Y-54538761D01*
X35599619Y-56538761D02*
X34599619Y-56872095D01*
X35599619Y-57205428D01*
X35123428Y-59062571D02*
X35123428Y-59395904D01*
X34599619Y-59538761D02*
X34599619Y-59062571D01*
X35599619Y-59062571D01*
X35599619Y-59538761D01*
X34885333Y-59919714D02*
X34885333Y-60395904D01*
X34599619Y-59824476D02*
X35599619Y-60157809D01*
X34599619Y-60491142D01*
X35123428Y-61586380D02*
X35123428Y-61919714D01*
X34599619Y-62062571D02*
X34599619Y-61586380D01*
X35599619Y-61586380D01*
X35599619Y-62062571D01*
X35123428Y-62824476D02*
X35075809Y-62967333D01*
X35028190Y-63014952D01*
X34932952Y-63062571D01*
X34790095Y-63062571D01*
X34694857Y-63014952D01*
X34647238Y-62967333D01*
X34599619Y-62872095D01*
X34599619Y-62491142D01*
X35599619Y-62491142D01*
X35599619Y-62824476D01*
X35552000Y-62919714D01*
X35504380Y-62967333D01*
X35409142Y-63014952D01*
X35313904Y-63014952D01*
X35218666Y-62967333D01*
X35171047Y-62919714D01*
X35123428Y-62824476D01*
X35123428Y-62491142D01*
X34885333Y-93655428D02*
X34885333Y-94131619D01*
X34599619Y-93560190D02*
X35599619Y-93893523D01*
X34599619Y-94226857D01*
X35123428Y-96417333D02*
X35075809Y-96560190D01*
X35028190Y-96607809D01*
X34932952Y-96655428D01*
X34790095Y-96655428D01*
X34694857Y-96607809D01*
X34647238Y-96560190D01*
X34599619Y-96464952D01*
X34599619Y-96084000D01*
X35599619Y-96084000D01*
X35599619Y-96417333D01*
X35552000Y-96512571D01*
X35504380Y-96560190D01*
X35409142Y-96607809D01*
X35313904Y-96607809D01*
X35218666Y-96560190D01*
X35171047Y-96512571D01*
X35123428Y-96417333D01*
X35123428Y-96084000D01*
X35552000Y-99131619D02*
X35599619Y-99036380D01*
X35599619Y-98893523D01*
X35552000Y-98750666D01*
X35456761Y-98655428D01*
X35361523Y-98607809D01*
X35171047Y-98560190D01*
X35028190Y-98560190D01*
X34837714Y-98607809D01*
X34742476Y-98655428D01*
X34647238Y-98750666D01*
X34599619Y-98893523D01*
X34599619Y-98988761D01*
X34647238Y-99131619D01*
X34694857Y-99179238D01*
X35028190Y-99179238D01*
X35028190Y-98988761D01*
X35599619Y-100988761D02*
X34599619Y-101322095D01*
X35599619Y-101655428D01*
X35123428Y-103512571D02*
X35123428Y-103845904D01*
X34599619Y-103988761D02*
X34599619Y-103512571D01*
X35599619Y-103512571D01*
X35599619Y-103988761D01*
X34885333Y-104369714D02*
X34885333Y-104845904D01*
X34599619Y-104274476D02*
X35599619Y-104607809D01*
X34599619Y-104941142D01*
X35123428Y-106036380D02*
X35123428Y-106369714D01*
X34599619Y-106512571D02*
X34599619Y-106036380D01*
X35599619Y-106036380D01*
X35599619Y-106512571D01*
X35123428Y-107274476D02*
X35075809Y-107417333D01*
X35028190Y-107464952D01*
X34932952Y-107512571D01*
X34790095Y-107512571D01*
X34694857Y-107464952D01*
X34647238Y-107417333D01*
X34599619Y-107322095D01*
X34599619Y-106941142D01*
X35599619Y-106941142D01*
X35599619Y-107274476D01*
X35552000Y-107369714D01*
X35504380Y-107417333D01*
X35409142Y-107464952D01*
X35313904Y-107464952D01*
X35218666Y-107417333D01*
X35171047Y-107369714D01*
X35123428Y-107274476D01*
X35123428Y-106941142D01*
X121705619Y-72438380D02*
X120705619Y-72771714D01*
X121705619Y-73105047D01*
X121705619Y-74057428D02*
X121705619Y-74628857D01*
X120705619Y-74343142D02*
X121705619Y-74343142D01*
X120705619Y-74962190D02*
X121372285Y-74962190D01*
X121181809Y-74962190D02*
X121277047Y-75009809D01*
X121324666Y-75057428D01*
X121372285Y-75152666D01*
X121372285Y-75247904D01*
X120705619Y-75581238D02*
X121372285Y-75581238D01*
X121705619Y-75581238D02*
X121658000Y-75533619D01*
X121610380Y-75581238D01*
X121658000Y-75628857D01*
X121705619Y-75581238D01*
X121610380Y-75581238D01*
X121372285Y-76486000D02*
X120562761Y-76486000D01*
X120467523Y-76438380D01*
X120419904Y-76390761D01*
X120372285Y-76295523D01*
X120372285Y-76152666D01*
X120419904Y-76057428D01*
X120753238Y-76486000D02*
X120705619Y-76390761D01*
X120705619Y-76200285D01*
X120753238Y-76105047D01*
X120800857Y-76057428D01*
X120896095Y-76009809D01*
X121181809Y-76009809D01*
X121277047Y-76057428D01*
X121324666Y-76105047D01*
X121372285Y-76200285D01*
X121372285Y-76390761D01*
X121324666Y-76486000D01*
X121229428Y-77724095D02*
X121229428Y-78057428D01*
X120705619Y-78200285D02*
X120705619Y-77724095D01*
X121705619Y-77724095D01*
X121705619Y-78200285D01*
X120753238Y-79057428D02*
X120705619Y-78962190D01*
X120705619Y-78771714D01*
X120753238Y-78676476D01*
X120800857Y-78628857D01*
X120896095Y-78581238D01*
X121181809Y-78581238D01*
X121277047Y-78628857D01*
X121324666Y-78676476D01*
X121372285Y-78771714D01*
X121372285Y-78962190D01*
X121324666Y-79057428D01*
X120705619Y-79486000D02*
X121705619Y-79486000D01*
X120705619Y-79914571D02*
X121229428Y-79914571D01*
X121324666Y-79866952D01*
X121372285Y-79771714D01*
X121372285Y-79628857D01*
X121324666Y-79533619D01*
X121277047Y-79486000D01*
X120705619Y-80533619D02*
X120753238Y-80438380D01*
X120800857Y-80390761D01*
X120896095Y-80343142D01*
X121181809Y-80343142D01*
X121277047Y-80390761D01*
X121324666Y-80438380D01*
X121372285Y-80533619D01*
X121372285Y-80676476D01*
X121324666Y-80771714D01*
X121277047Y-80819333D01*
X121181809Y-80866952D01*
X120896095Y-80866952D01*
X120800857Y-80819333D01*
X120753238Y-80771714D01*
X120705619Y-80676476D01*
X120705619Y-80533619D01*
X121658000Y-82581238D02*
X121705619Y-82486000D01*
X121705619Y-82343142D01*
X121658000Y-82200285D01*
X121562761Y-82105047D01*
X121467523Y-82057428D01*
X121277047Y-82009809D01*
X121134190Y-82009809D01*
X120943714Y-82057428D01*
X120848476Y-82105047D01*
X120753238Y-82200285D01*
X120705619Y-82343142D01*
X120705619Y-82438380D01*
X120753238Y-82581238D01*
X120800857Y-82628857D01*
X121134190Y-82628857D01*
X121134190Y-82438380D01*
X121372285Y-83057428D02*
X120705619Y-83057428D01*
X121277047Y-83057428D02*
X121324666Y-83105047D01*
X121372285Y-83200285D01*
X121372285Y-83343142D01*
X121324666Y-83438380D01*
X121229428Y-83486000D01*
X120705619Y-83486000D01*
X120705619Y-84390761D02*
X121705619Y-84390761D01*
X120753238Y-84390761D02*
X120705619Y-84295523D01*
X120705619Y-84105047D01*
X120753238Y-84009809D01*
X120800857Y-83962190D01*
X120896095Y-83914571D01*
X121181809Y-83914571D01*
X121277047Y-83962190D01*
X121324666Y-84009809D01*
X121372285Y-84105047D01*
X121372285Y-84295523D01*
X121324666Y-84390761D01*
X35599619Y-72438380D02*
X34599619Y-72771714D01*
X35599619Y-73105047D01*
X35599619Y-74057428D02*
X35599619Y-74628857D01*
X34599619Y-74343142D02*
X35599619Y-74343142D01*
X34599619Y-74962190D02*
X35266285Y-74962190D01*
X35075809Y-74962190D02*
X35171047Y-75009809D01*
X35218666Y-75057428D01*
X35266285Y-75152666D01*
X35266285Y-75247904D01*
X34599619Y-75581238D02*
X35266285Y-75581238D01*
X35599619Y-75581238D02*
X35552000Y-75533619D01*
X35504380Y-75581238D01*
X35552000Y-75628857D01*
X35599619Y-75581238D01*
X35504380Y-75581238D01*
X35266285Y-76486000D02*
X34456761Y-76486000D01*
X34361523Y-76438380D01*
X34313904Y-76390761D01*
X34266285Y-76295523D01*
X34266285Y-76152666D01*
X34313904Y-76057428D01*
X34647238Y-76486000D02*
X34599619Y-76390761D01*
X34599619Y-76200285D01*
X34647238Y-76105047D01*
X34694857Y-76057428D01*
X34790095Y-76009809D01*
X35075809Y-76009809D01*
X35171047Y-76057428D01*
X35218666Y-76105047D01*
X35266285Y-76200285D01*
X35266285Y-76390761D01*
X35218666Y-76486000D01*
X35123428Y-77724095D02*
X35123428Y-78057428D01*
X34599619Y-78200285D02*
X34599619Y-77724095D01*
X35599619Y-77724095D01*
X35599619Y-78200285D01*
X34647238Y-79057428D02*
X34599619Y-78962190D01*
X34599619Y-78771714D01*
X34647238Y-78676476D01*
X34694857Y-78628857D01*
X34790095Y-78581238D01*
X35075809Y-78581238D01*
X35171047Y-78628857D01*
X35218666Y-78676476D01*
X35266285Y-78771714D01*
X35266285Y-78962190D01*
X35218666Y-79057428D01*
X34599619Y-79486000D02*
X35599619Y-79486000D01*
X34599619Y-79914571D02*
X35123428Y-79914571D01*
X35218666Y-79866952D01*
X35266285Y-79771714D01*
X35266285Y-79628857D01*
X35218666Y-79533619D01*
X35171047Y-79486000D01*
X34599619Y-80533619D02*
X34647238Y-80438380D01*
X34694857Y-80390761D01*
X34790095Y-80343142D01*
X35075809Y-80343142D01*
X35171047Y-80390761D01*
X35218666Y-80438380D01*
X35266285Y-80533619D01*
X35266285Y-80676476D01*
X35218666Y-80771714D01*
X35171047Y-80819333D01*
X35075809Y-80866952D01*
X34790095Y-80866952D01*
X34694857Y-80819333D01*
X34647238Y-80771714D01*
X34599619Y-80676476D01*
X34599619Y-80533619D01*
X35552000Y-82581238D02*
X35599619Y-82486000D01*
X35599619Y-82343142D01*
X35552000Y-82200285D01*
X35456761Y-82105047D01*
X35361523Y-82057428D01*
X35171047Y-82009809D01*
X35028190Y-82009809D01*
X34837714Y-82057428D01*
X34742476Y-82105047D01*
X34647238Y-82200285D01*
X34599619Y-82343142D01*
X34599619Y-82438380D01*
X34647238Y-82581238D01*
X34694857Y-82628857D01*
X35028190Y-82628857D01*
X35028190Y-82438380D01*
X35266285Y-83057428D02*
X34599619Y-83057428D01*
X35171047Y-83057428D02*
X35218666Y-83105047D01*
X35266285Y-83200285D01*
X35266285Y-83343142D01*
X35218666Y-83438380D01*
X35123428Y-83486000D01*
X34599619Y-83486000D01*
X34599619Y-84390761D02*
X35599619Y-84390761D01*
X34647238Y-84390761D02*
X34599619Y-84295523D01*
X34599619Y-84105047D01*
X34647238Y-84009809D01*
X34694857Y-83962190D01*
X34790095Y-83914571D01*
X35075809Y-83914571D01*
X35171047Y-83962190D01*
X35218666Y-84009809D01*
X35266285Y-84105047D01*
X35266285Y-84295523D01*
X35218666Y-84390761D01*
X71930380Y-112482380D02*
X72263714Y-113482380D01*
X72597047Y-112482380D01*
X73549428Y-112482380D02*
X74120857Y-112482380D01*
X73835142Y-113482380D02*
X73835142Y-112482380D01*
X74454190Y-113482380D02*
X74454190Y-112815714D01*
X74454190Y-113006190D02*
X74501809Y-112910952D01*
X74549428Y-112863333D01*
X74644666Y-112815714D01*
X74739904Y-112815714D01*
X75073238Y-113482380D02*
X75073238Y-112815714D01*
X75073238Y-112482380D02*
X75025619Y-112530000D01*
X75073238Y-112577619D01*
X75120857Y-112530000D01*
X75073238Y-112482380D01*
X75073238Y-112577619D01*
X75978000Y-112815714D02*
X75978000Y-113625238D01*
X75930380Y-113720476D01*
X75882761Y-113768095D01*
X75787523Y-113815714D01*
X75644666Y-113815714D01*
X75549428Y-113768095D01*
X75978000Y-113434761D02*
X75882761Y-113482380D01*
X75692285Y-113482380D01*
X75597047Y-113434761D01*
X75549428Y-113387142D01*
X75501809Y-113291904D01*
X75501809Y-113006190D01*
X75549428Y-112910952D01*
X75597047Y-112863333D01*
X75692285Y-112815714D01*
X75882761Y-112815714D01*
X75978000Y-112863333D01*
X77216095Y-112958571D02*
X77549428Y-112958571D01*
X77692285Y-113482380D02*
X77216095Y-113482380D01*
X77216095Y-112482380D01*
X77692285Y-112482380D01*
X78549428Y-113434761D02*
X78454190Y-113482380D01*
X78263714Y-113482380D01*
X78168476Y-113434761D01*
X78120857Y-113387142D01*
X78073238Y-113291904D01*
X78073238Y-113006190D01*
X78120857Y-112910952D01*
X78168476Y-112863333D01*
X78263714Y-112815714D01*
X78454190Y-112815714D01*
X78549428Y-112863333D01*
X78978000Y-113482380D02*
X78978000Y-112482380D01*
X79406571Y-113482380D02*
X79406571Y-112958571D01*
X79358952Y-112863333D01*
X79263714Y-112815714D01*
X79120857Y-112815714D01*
X79025619Y-112863333D01*
X78978000Y-112910952D01*
X80025619Y-113482380D02*
X79930380Y-113434761D01*
X79882761Y-113387142D01*
X79835142Y-113291904D01*
X79835142Y-113006190D01*
X79882761Y-112910952D01*
X79930380Y-112863333D01*
X80025619Y-112815714D01*
X80168476Y-112815714D01*
X80263714Y-112863333D01*
X80311333Y-112910952D01*
X80358952Y-113006190D01*
X80358952Y-113291904D01*
X80311333Y-113387142D01*
X80263714Y-113434761D01*
X80168476Y-113482380D01*
X80025619Y-113482380D01*
X82073238Y-112530000D02*
X81978000Y-112482380D01*
X81835142Y-112482380D01*
X81692285Y-112530000D01*
X81597047Y-112625238D01*
X81549428Y-112720476D01*
X81501809Y-112910952D01*
X81501809Y-113053809D01*
X81549428Y-113244285D01*
X81597047Y-113339523D01*
X81692285Y-113434761D01*
X81835142Y-113482380D01*
X81930380Y-113482380D01*
X82073238Y-113434761D01*
X82120857Y-113387142D01*
X82120857Y-113053809D01*
X81930380Y-113053809D01*
X82549428Y-112815714D02*
X82549428Y-113482380D01*
X82549428Y-112910952D02*
X82597047Y-112863333D01*
X82692285Y-112815714D01*
X82835142Y-112815714D01*
X82930380Y-112863333D01*
X82978000Y-112958571D01*
X82978000Y-113482380D01*
X83882761Y-113482380D02*
X83882761Y-112482380D01*
X83882761Y-113434761D02*
X83787523Y-113482380D01*
X83597047Y-113482380D01*
X83501809Y-113434761D01*
X83454190Y-113387142D01*
X83406571Y-113291904D01*
X83406571Y-113006190D01*
X83454190Y-112910952D01*
X83501809Y-112863333D01*
X83597047Y-112815714D01*
X83787523Y-112815714D01*
X83882761Y-112863333D01*
X72184380Y-43140380D02*
X72517714Y-44140380D01*
X72851047Y-43140380D01*
X73803428Y-43140380D02*
X74374857Y-43140380D01*
X74089142Y-44140380D02*
X74089142Y-43140380D01*
X74708190Y-44140380D02*
X74708190Y-43473714D01*
X74708190Y-43664190D02*
X74755809Y-43568952D01*
X74803428Y-43521333D01*
X74898666Y-43473714D01*
X74993904Y-43473714D01*
X75327238Y-44140380D02*
X75327238Y-43473714D01*
X75327238Y-43140380D02*
X75279619Y-43188000D01*
X75327238Y-43235619D01*
X75374857Y-43188000D01*
X75327238Y-43140380D01*
X75327238Y-43235619D01*
X76232000Y-43473714D02*
X76232000Y-44283238D01*
X76184380Y-44378476D01*
X76136761Y-44426095D01*
X76041523Y-44473714D01*
X75898666Y-44473714D01*
X75803428Y-44426095D01*
X76232000Y-44092761D02*
X76136761Y-44140380D01*
X75946285Y-44140380D01*
X75851047Y-44092761D01*
X75803428Y-44045142D01*
X75755809Y-43949904D01*
X75755809Y-43664190D01*
X75803428Y-43568952D01*
X75851047Y-43521333D01*
X75946285Y-43473714D01*
X76136761Y-43473714D01*
X76232000Y-43521333D01*
X77470095Y-43616571D02*
X77803428Y-43616571D01*
X77946285Y-44140380D02*
X77470095Y-44140380D01*
X77470095Y-43140380D01*
X77946285Y-43140380D01*
X78803428Y-44092761D02*
X78708190Y-44140380D01*
X78517714Y-44140380D01*
X78422476Y-44092761D01*
X78374857Y-44045142D01*
X78327238Y-43949904D01*
X78327238Y-43664190D01*
X78374857Y-43568952D01*
X78422476Y-43521333D01*
X78517714Y-43473714D01*
X78708190Y-43473714D01*
X78803428Y-43521333D01*
X79232000Y-44140380D02*
X79232000Y-43140380D01*
X79660571Y-44140380D02*
X79660571Y-43616571D01*
X79612952Y-43521333D01*
X79517714Y-43473714D01*
X79374857Y-43473714D01*
X79279619Y-43521333D01*
X79232000Y-43568952D01*
X80279619Y-44140380D02*
X80184380Y-44092761D01*
X80136761Y-44045142D01*
X80089142Y-43949904D01*
X80089142Y-43664190D01*
X80136761Y-43568952D01*
X80184380Y-43521333D01*
X80279619Y-43473714D01*
X80422476Y-43473714D01*
X80517714Y-43521333D01*
X80565333Y-43568952D01*
X80612952Y-43664190D01*
X80612952Y-43949904D01*
X80565333Y-44045142D01*
X80517714Y-44092761D01*
X80422476Y-44140380D01*
X80279619Y-44140380D01*
X82327238Y-43188000D02*
X82232000Y-43140380D01*
X82089142Y-43140380D01*
X81946285Y-43188000D01*
X81851047Y-43283238D01*
X81803428Y-43378476D01*
X81755809Y-43568952D01*
X81755809Y-43711809D01*
X81803428Y-43902285D01*
X81851047Y-43997523D01*
X81946285Y-44092761D01*
X82089142Y-44140380D01*
X82184380Y-44140380D01*
X82327238Y-44092761D01*
X82374857Y-44045142D01*
X82374857Y-43711809D01*
X82184380Y-43711809D01*
X82803428Y-43473714D02*
X82803428Y-44140380D01*
X82803428Y-43568952D02*
X82851047Y-43521333D01*
X82946285Y-43473714D01*
X83089142Y-43473714D01*
X83184380Y-43521333D01*
X83232000Y-43616571D01*
X83232000Y-44140380D01*
X84136761Y-44140380D02*
X84136761Y-43140380D01*
X84136761Y-44092761D02*
X84041523Y-44140380D01*
X83851047Y-44140380D01*
X83755809Y-44092761D01*
X83708190Y-44045142D01*
X83660571Y-43949904D01*
X83660571Y-43664190D01*
X83708190Y-43568952D01*
X83755809Y-43521333D01*
X83851047Y-43473714D01*
X84041523Y-43473714D01*
X84136761Y-43521333D01*
X84384095Y-45648571D02*
X84050761Y-45648571D01*
X84050761Y-46172380D02*
X84050761Y-45172380D01*
X84526952Y-45172380D01*
X84907904Y-46172380D02*
X84907904Y-45505714D01*
X84907904Y-45696190D02*
X84955523Y-45600952D01*
X85003142Y-45553333D01*
X85098380Y-45505714D01*
X85193619Y-45505714D01*
X85669809Y-46172380D02*
X85574571Y-46124761D01*
X85526952Y-46077142D01*
X85479333Y-45981904D01*
X85479333Y-45696190D01*
X85526952Y-45600952D01*
X85574571Y-45553333D01*
X85669809Y-45505714D01*
X85812666Y-45505714D01*
X85907904Y-45553333D01*
X85955523Y-45600952D01*
X86003142Y-45696190D01*
X86003142Y-45981904D01*
X85955523Y-46077142D01*
X85907904Y-46124761D01*
X85812666Y-46172380D01*
X85669809Y-46172380D01*
X86431714Y-45505714D02*
X86431714Y-46172380D01*
X86431714Y-45600952D02*
X86479333Y-45553333D01*
X86574571Y-45505714D01*
X86717428Y-45505714D01*
X86812666Y-45553333D01*
X86860285Y-45648571D01*
X86860285Y-46172380D01*
X87193619Y-45505714D02*
X87574571Y-45505714D01*
X87336476Y-45172380D02*
X87336476Y-46029523D01*
X87384095Y-46124761D01*
X87479333Y-46172380D01*
X87574571Y-46172380D01*
X88622190Y-46124761D02*
X88765047Y-46172380D01*
X89003142Y-46172380D01*
X89098380Y-46124761D01*
X89146000Y-46077142D01*
X89193619Y-45981904D01*
X89193619Y-45886666D01*
X89146000Y-45791428D01*
X89098380Y-45743809D01*
X89003142Y-45696190D01*
X88812666Y-45648571D01*
X88717428Y-45600952D01*
X88669809Y-45553333D01*
X88622190Y-45458095D01*
X88622190Y-45362857D01*
X88669809Y-45267619D01*
X88717428Y-45220000D01*
X88812666Y-45172380D01*
X89050761Y-45172380D01*
X89193619Y-45220000D01*
X90003142Y-46124761D02*
X89907904Y-46172380D01*
X89717428Y-46172380D01*
X89622190Y-46124761D01*
X89574571Y-46029523D01*
X89574571Y-45648571D01*
X89622190Y-45553333D01*
X89717428Y-45505714D01*
X89907904Y-45505714D01*
X90003142Y-45553333D01*
X90050761Y-45648571D01*
X90050761Y-45743809D01*
X89574571Y-45839047D01*
X90479333Y-45505714D02*
X90479333Y-46172380D01*
X90479333Y-45600952D02*
X90526952Y-45553333D01*
X90622190Y-45505714D01*
X90765047Y-45505714D01*
X90860285Y-45553333D01*
X90907904Y-45648571D01*
X90907904Y-46172380D01*
X91336476Y-46124761D02*
X91431714Y-46172380D01*
X91622190Y-46172380D01*
X91717428Y-46124761D01*
X91765047Y-46029523D01*
X91765047Y-45981904D01*
X91717428Y-45886666D01*
X91622190Y-45839047D01*
X91479333Y-45839047D01*
X91384095Y-45791428D01*
X91336476Y-45696190D01*
X91336476Y-45648571D01*
X91384095Y-45553333D01*
X91479333Y-45505714D01*
X91622190Y-45505714D01*
X91717428Y-45553333D01*
X92336476Y-46172380D02*
X92241238Y-46124761D01*
X92193619Y-46077142D01*
X92146000Y-45981904D01*
X92146000Y-45696190D01*
X92193619Y-45600952D01*
X92241238Y-45553333D01*
X92336476Y-45505714D01*
X92479333Y-45505714D01*
X92574571Y-45553333D01*
X92622190Y-45600952D01*
X92669809Y-45696190D01*
X92669809Y-45981904D01*
X92622190Y-46077142D01*
X92574571Y-46124761D01*
X92479333Y-46172380D01*
X92336476Y-46172380D01*
X93098380Y-46172380D02*
X93098380Y-45505714D01*
X93098380Y-45696190D02*
X93146000Y-45600952D01*
X93193619Y-45553333D01*
X93288857Y-45505714D01*
X93384095Y-45505714D01*
X40838380Y-81065238D02*
X40838380Y-81541428D01*
X39838380Y-81541428D01*
X40790761Y-80350952D02*
X40838380Y-80446190D01*
X40838380Y-80636666D01*
X40790761Y-80731904D01*
X40695523Y-80779523D01*
X40314571Y-80779523D01*
X40219333Y-80731904D01*
X40171714Y-80636666D01*
X40171714Y-80446190D01*
X40219333Y-80350952D01*
X40314571Y-80303333D01*
X40409809Y-80303333D01*
X40505047Y-80779523D01*
X40171714Y-80017619D02*
X40171714Y-79636666D01*
X40838380Y-79874761D02*
X39981238Y-79874761D01*
X39886000Y-79827142D01*
X39838380Y-79731904D01*
X39838380Y-79636666D01*
X40171714Y-79446190D02*
X40171714Y-79065238D01*
X39838380Y-79303333D02*
X40695523Y-79303333D01*
X40790761Y-79255714D01*
X40838380Y-79160476D01*
X40838380Y-79065238D01*
X40790761Y-78017619D02*
X40838380Y-77874761D01*
X40838380Y-77636666D01*
X40790761Y-77541428D01*
X40743142Y-77493809D01*
X40647904Y-77446190D01*
X40552666Y-77446190D01*
X40457428Y-77493809D01*
X40409809Y-77541428D01*
X40362190Y-77636666D01*
X40314571Y-77827142D01*
X40266952Y-77922380D01*
X40219333Y-77970000D01*
X40124095Y-78017619D01*
X40028857Y-78017619D01*
X39933619Y-77970000D01*
X39886000Y-77922380D01*
X39838380Y-77827142D01*
X39838380Y-77589047D01*
X39886000Y-77446190D01*
X40790761Y-76636666D02*
X40838380Y-76731904D01*
X40838380Y-76922380D01*
X40790761Y-77017619D01*
X40695523Y-77065238D01*
X40314571Y-77065238D01*
X40219333Y-77017619D01*
X40171714Y-76922380D01*
X40171714Y-76731904D01*
X40219333Y-76636666D01*
X40314571Y-76589047D01*
X40409809Y-76589047D01*
X40505047Y-77065238D01*
X40171714Y-76160476D02*
X40838380Y-76160476D01*
X40266952Y-76160476D02*
X40219333Y-76112857D01*
X40171714Y-76017619D01*
X40171714Y-75874761D01*
X40219333Y-75779523D01*
X40314571Y-75731904D01*
X40838380Y-75731904D01*
X40790761Y-75303333D02*
X40838380Y-75208095D01*
X40838380Y-75017619D01*
X40790761Y-74922380D01*
X40695523Y-74874761D01*
X40647904Y-74874761D01*
X40552666Y-74922380D01*
X40505047Y-75017619D01*
X40505047Y-75160476D01*
X40457428Y-75255714D01*
X40362190Y-75303333D01*
X40314571Y-75303333D01*
X40219333Y-75255714D01*
X40171714Y-75160476D01*
X40171714Y-75017619D01*
X40219333Y-74922380D01*
X40838380Y-74303333D02*
X40790761Y-74398571D01*
X40743142Y-74446190D01*
X40647904Y-74493809D01*
X40362190Y-74493809D01*
X40266952Y-74446190D01*
X40219333Y-74398571D01*
X40171714Y-74303333D01*
X40171714Y-74160476D01*
X40219333Y-74065238D01*
X40266952Y-74017619D01*
X40362190Y-73970000D01*
X40647904Y-73970000D01*
X40743142Y-74017619D01*
X40790761Y-74065238D01*
X40838380Y-74160476D01*
X40838380Y-74303333D01*
X40838380Y-73541428D02*
X40171714Y-73541428D01*
X40362190Y-73541428D02*
X40266952Y-73493809D01*
X40219333Y-73446190D01*
X40171714Y-73350952D01*
X40171714Y-73255714D01*
X116022380Y-81493809D02*
X115546190Y-81827142D01*
X116022380Y-82065238D02*
X115022380Y-82065238D01*
X115022380Y-81684285D01*
X115070000Y-81589047D01*
X115117619Y-81541428D01*
X115212857Y-81493809D01*
X115355714Y-81493809D01*
X115450952Y-81541428D01*
X115498571Y-81589047D01*
X115546190Y-81684285D01*
X115546190Y-82065238D01*
X116022380Y-81065238D02*
X115355714Y-81065238D01*
X115022380Y-81065238D02*
X115070000Y-81112857D01*
X115117619Y-81065238D01*
X115070000Y-81017619D01*
X115022380Y-81065238D01*
X115117619Y-81065238D01*
X115355714Y-80160476D02*
X116165238Y-80160476D01*
X116260476Y-80208095D01*
X116308095Y-80255714D01*
X116355714Y-80350952D01*
X116355714Y-80493809D01*
X116308095Y-80589047D01*
X115974761Y-80160476D02*
X116022380Y-80255714D01*
X116022380Y-80446190D01*
X115974761Y-80541428D01*
X115927142Y-80589047D01*
X115831904Y-80636666D01*
X115546190Y-80636666D01*
X115450952Y-80589047D01*
X115403333Y-80541428D01*
X115355714Y-80446190D01*
X115355714Y-80255714D01*
X115403333Y-80160476D01*
X116022380Y-79684285D02*
X115022380Y-79684285D01*
X116022380Y-79255714D02*
X115498571Y-79255714D01*
X115403333Y-79303333D01*
X115355714Y-79398571D01*
X115355714Y-79541428D01*
X115403333Y-79636666D01*
X115450952Y-79684285D01*
X115355714Y-78922380D02*
X115355714Y-78541428D01*
X115022380Y-78779523D02*
X115879523Y-78779523D01*
X115974761Y-78731904D01*
X116022380Y-78636666D01*
X116022380Y-78541428D01*
X115974761Y-77493809D02*
X116022380Y-77350952D01*
X116022380Y-77112857D01*
X115974761Y-77017619D01*
X115927142Y-76970000D01*
X115831904Y-76922380D01*
X115736666Y-76922380D01*
X115641428Y-76970000D01*
X115593809Y-77017619D01*
X115546190Y-77112857D01*
X115498571Y-77303333D01*
X115450952Y-77398571D01*
X115403333Y-77446190D01*
X115308095Y-77493809D01*
X115212857Y-77493809D01*
X115117619Y-77446190D01*
X115070000Y-77398571D01*
X115022380Y-77303333D01*
X115022380Y-77065238D01*
X115070000Y-76922380D01*
X115974761Y-76112857D02*
X116022380Y-76208095D01*
X116022380Y-76398571D01*
X115974761Y-76493809D01*
X115879523Y-76541428D01*
X115498571Y-76541428D01*
X115403333Y-76493809D01*
X115355714Y-76398571D01*
X115355714Y-76208095D01*
X115403333Y-76112857D01*
X115498571Y-76065238D01*
X115593809Y-76065238D01*
X115689047Y-76541428D01*
X115355714Y-75636666D02*
X116022380Y-75636666D01*
X115450952Y-75636666D02*
X115403333Y-75589047D01*
X115355714Y-75493809D01*
X115355714Y-75350952D01*
X115403333Y-75255714D01*
X115498571Y-75208095D01*
X116022380Y-75208095D01*
X115974761Y-74779523D02*
X116022380Y-74684285D01*
X116022380Y-74493809D01*
X115974761Y-74398571D01*
X115879523Y-74350952D01*
X115831904Y-74350952D01*
X115736666Y-74398571D01*
X115689047Y-74493809D01*
X115689047Y-74636666D01*
X115641428Y-74731904D01*
X115546190Y-74779523D01*
X115498571Y-74779523D01*
X115403333Y-74731904D01*
X115355714Y-74636666D01*
X115355714Y-74493809D01*
X115403333Y-74398571D01*
X116022380Y-73779523D02*
X115974761Y-73874761D01*
X115927142Y-73922380D01*
X115831904Y-73970000D01*
X115546190Y-73970000D01*
X115450952Y-73922380D01*
X115403333Y-73874761D01*
X115355714Y-73779523D01*
X115355714Y-73636666D01*
X115403333Y-73541428D01*
X115450952Y-73493809D01*
X115546190Y-73446190D01*
X115831904Y-73446190D01*
X115927142Y-73493809D01*
X115974761Y-73541428D01*
X116022380Y-73636666D01*
X116022380Y-73779523D01*
X116022380Y-73017619D02*
X115355714Y-73017619D01*
X115546190Y-73017619D02*
X115450952Y-72970000D01*
X115403333Y-72922380D01*
X115355714Y-72827142D01*
X115355714Y-72731904D01*
X83510952Y-110418571D02*
X83653809Y-110466190D01*
X83701428Y-110513809D01*
X83749047Y-110609047D01*
X83749047Y-110751904D01*
X83701428Y-110847142D01*
X83653809Y-110894761D01*
X83558571Y-110942380D01*
X83177619Y-110942380D01*
X83177619Y-109942380D01*
X83510952Y-109942380D01*
X83606190Y-109990000D01*
X83653809Y-110037619D01*
X83701428Y-110132857D01*
X83701428Y-110228095D01*
X83653809Y-110323333D01*
X83606190Y-110370952D01*
X83510952Y-110418571D01*
X83177619Y-110418571D01*
X84606190Y-110942380D02*
X84606190Y-110418571D01*
X84558571Y-110323333D01*
X84463333Y-110275714D01*
X84272857Y-110275714D01*
X84177619Y-110323333D01*
X84606190Y-110894761D02*
X84510952Y-110942380D01*
X84272857Y-110942380D01*
X84177619Y-110894761D01*
X84130000Y-110799523D01*
X84130000Y-110704285D01*
X84177619Y-110609047D01*
X84272857Y-110561428D01*
X84510952Y-110561428D01*
X84606190Y-110513809D01*
X85510952Y-110894761D02*
X85415714Y-110942380D01*
X85225238Y-110942380D01*
X85130000Y-110894761D01*
X85082380Y-110847142D01*
X85034761Y-110751904D01*
X85034761Y-110466190D01*
X85082380Y-110370952D01*
X85130000Y-110323333D01*
X85225238Y-110275714D01*
X85415714Y-110275714D01*
X85510952Y-110323333D01*
X85939523Y-110942380D02*
X85939523Y-109942380D01*
X86034761Y-110561428D02*
X86320476Y-110942380D01*
X86320476Y-110275714D02*
X85939523Y-110656666D01*
X87463333Y-110894761D02*
X87606190Y-110942380D01*
X87844285Y-110942380D01*
X87939523Y-110894761D01*
X87987142Y-110847142D01*
X88034761Y-110751904D01*
X88034761Y-110656666D01*
X87987142Y-110561428D01*
X87939523Y-110513809D01*
X87844285Y-110466190D01*
X87653809Y-110418571D01*
X87558571Y-110370952D01*
X87510952Y-110323333D01*
X87463333Y-110228095D01*
X87463333Y-110132857D01*
X87510952Y-110037619D01*
X87558571Y-109990000D01*
X87653809Y-109942380D01*
X87891904Y-109942380D01*
X88034761Y-109990000D01*
X88844285Y-110894761D02*
X88749047Y-110942380D01*
X88558571Y-110942380D01*
X88463333Y-110894761D01*
X88415714Y-110799523D01*
X88415714Y-110418571D01*
X88463333Y-110323333D01*
X88558571Y-110275714D01*
X88749047Y-110275714D01*
X88844285Y-110323333D01*
X88891904Y-110418571D01*
X88891904Y-110513809D01*
X88415714Y-110609047D01*
X89320476Y-110275714D02*
X89320476Y-110942380D01*
X89320476Y-110370952D02*
X89368095Y-110323333D01*
X89463333Y-110275714D01*
X89606190Y-110275714D01*
X89701428Y-110323333D01*
X89749047Y-110418571D01*
X89749047Y-110942380D01*
X90177619Y-110894761D02*
X90272857Y-110942380D01*
X90463333Y-110942380D01*
X90558571Y-110894761D01*
X90606190Y-110799523D01*
X90606190Y-110751904D01*
X90558571Y-110656666D01*
X90463333Y-110609047D01*
X90320476Y-110609047D01*
X90225238Y-110561428D01*
X90177619Y-110466190D01*
X90177619Y-110418571D01*
X90225238Y-110323333D01*
X90320476Y-110275714D01*
X90463333Y-110275714D01*
X90558571Y-110323333D01*
X91177619Y-110942380D02*
X91082380Y-110894761D01*
X91034761Y-110847142D01*
X90987142Y-110751904D01*
X90987142Y-110466190D01*
X91034761Y-110370952D01*
X91082380Y-110323333D01*
X91177619Y-110275714D01*
X91320476Y-110275714D01*
X91415714Y-110323333D01*
X91463333Y-110370952D01*
X91510952Y-110466190D01*
X91510952Y-110751904D01*
X91463333Y-110847142D01*
X91415714Y-110894761D01*
X91320476Y-110942380D01*
X91177619Y-110942380D01*
X91939523Y-110942380D02*
X91939523Y-110275714D01*
X91939523Y-110466190D02*
X91987142Y-110370952D01*
X92034761Y-110323333D01*
X92130000Y-110275714D01*
X92225238Y-110275714D01*
X102925714Y-91813571D02*
X103068571Y-91861190D01*
X103116190Y-91908809D01*
X103163809Y-92004047D01*
X103163809Y-92146904D01*
X103116190Y-92242142D01*
X103068571Y-92289761D01*
X102973333Y-92337380D01*
X102592380Y-92337380D01*
X102592380Y-91337380D01*
X102925714Y-91337380D01*
X103020952Y-91385000D01*
X103068571Y-91432619D01*
X103116190Y-91527857D01*
X103116190Y-91623095D01*
X103068571Y-91718333D01*
X103020952Y-91765952D01*
X102925714Y-91813571D01*
X102592380Y-91813571D01*
X104020952Y-92337380D02*
X104020952Y-91813571D01*
X103973333Y-91718333D01*
X103878095Y-91670714D01*
X103687619Y-91670714D01*
X103592380Y-91718333D01*
X104020952Y-92289761D02*
X103925714Y-92337380D01*
X103687619Y-92337380D01*
X103592380Y-92289761D01*
X103544761Y-92194523D01*
X103544761Y-92099285D01*
X103592380Y-92004047D01*
X103687619Y-91956428D01*
X103925714Y-91956428D01*
X104020952Y-91908809D01*
X104925714Y-92289761D02*
X104830476Y-92337380D01*
X104640000Y-92337380D01*
X104544761Y-92289761D01*
X104497142Y-92242142D01*
X104449523Y-92146904D01*
X104449523Y-91861190D01*
X104497142Y-91765952D01*
X104544761Y-91718333D01*
X104640000Y-91670714D01*
X104830476Y-91670714D01*
X104925714Y-91718333D01*
X105354285Y-92337380D02*
X105354285Y-91337380D01*
X105449523Y-91956428D02*
X105735238Y-92337380D01*
X105735238Y-91670714D02*
X105354285Y-92051666D01*
X103020952Y-93987380D02*
X102687619Y-93511190D01*
X102449523Y-93987380D02*
X102449523Y-92987380D01*
X102830476Y-92987380D01*
X102925714Y-93035000D01*
X102973333Y-93082619D01*
X103020952Y-93177857D01*
X103020952Y-93320714D01*
X102973333Y-93415952D01*
X102925714Y-93463571D01*
X102830476Y-93511190D01*
X102449523Y-93511190D01*
X103449523Y-93987380D02*
X103449523Y-93320714D01*
X103449523Y-92987380D02*
X103401904Y-93035000D01*
X103449523Y-93082619D01*
X103497142Y-93035000D01*
X103449523Y-92987380D01*
X103449523Y-93082619D01*
X104354285Y-93320714D02*
X104354285Y-94130238D01*
X104306666Y-94225476D01*
X104259047Y-94273095D01*
X104163809Y-94320714D01*
X104020952Y-94320714D01*
X103925714Y-94273095D01*
X104354285Y-93939761D02*
X104259047Y-93987380D01*
X104068571Y-93987380D01*
X103973333Y-93939761D01*
X103925714Y-93892142D01*
X103878095Y-93796904D01*
X103878095Y-93511190D01*
X103925714Y-93415952D01*
X103973333Y-93368333D01*
X104068571Y-93320714D01*
X104259047Y-93320714D01*
X104354285Y-93368333D01*
X104830476Y-93987380D02*
X104830476Y-92987380D01*
X105259047Y-93987380D02*
X105259047Y-93463571D01*
X105211428Y-93368333D01*
X105116190Y-93320714D01*
X104973333Y-93320714D01*
X104878095Y-93368333D01*
X104830476Y-93415952D01*
X105592380Y-93320714D02*
X105973333Y-93320714D01*
X105735238Y-92987380D02*
X105735238Y-93844523D01*
X105782857Y-93939761D01*
X105878095Y-93987380D01*
X105973333Y-93987380D01*
X102782857Y-49903571D02*
X102449523Y-49903571D01*
X102449523Y-50427380D02*
X102449523Y-49427380D01*
X102925714Y-49427380D01*
X103306666Y-50427380D02*
X103306666Y-49760714D01*
X103306666Y-49951190D02*
X103354285Y-49855952D01*
X103401904Y-49808333D01*
X103497142Y-49760714D01*
X103592380Y-49760714D01*
X104068571Y-50427380D02*
X103973333Y-50379761D01*
X103925714Y-50332142D01*
X103878095Y-50236904D01*
X103878095Y-49951190D01*
X103925714Y-49855952D01*
X103973333Y-49808333D01*
X104068571Y-49760714D01*
X104211428Y-49760714D01*
X104306666Y-49808333D01*
X104354285Y-49855952D01*
X104401904Y-49951190D01*
X104401904Y-50236904D01*
X104354285Y-50332142D01*
X104306666Y-50379761D01*
X104211428Y-50427380D01*
X104068571Y-50427380D01*
X104830476Y-49760714D02*
X104830476Y-50427380D01*
X104830476Y-49855952D02*
X104878095Y-49808333D01*
X104973333Y-49760714D01*
X105116190Y-49760714D01*
X105211428Y-49808333D01*
X105259047Y-49903571D01*
X105259047Y-50427380D01*
X105592380Y-49760714D02*
X105973333Y-49760714D01*
X105735238Y-49427380D02*
X105735238Y-50284523D01*
X105782857Y-50379761D01*
X105878095Y-50427380D01*
X105973333Y-50427380D01*
X103020952Y-52077380D02*
X102687619Y-51601190D01*
X102449523Y-52077380D02*
X102449523Y-51077380D01*
X102830476Y-51077380D01*
X102925714Y-51125000D01*
X102973333Y-51172619D01*
X103020952Y-51267857D01*
X103020952Y-51410714D01*
X102973333Y-51505952D01*
X102925714Y-51553571D01*
X102830476Y-51601190D01*
X102449523Y-51601190D01*
X103449523Y-52077380D02*
X103449523Y-51410714D01*
X103449523Y-51077380D02*
X103401904Y-51125000D01*
X103449523Y-51172619D01*
X103497142Y-51125000D01*
X103449523Y-51077380D01*
X103449523Y-51172619D01*
X104354285Y-51410714D02*
X104354285Y-52220238D01*
X104306666Y-52315476D01*
X104259047Y-52363095D01*
X104163809Y-52410714D01*
X104020952Y-52410714D01*
X103925714Y-52363095D01*
X104354285Y-52029761D02*
X104259047Y-52077380D01*
X104068571Y-52077380D01*
X103973333Y-52029761D01*
X103925714Y-51982142D01*
X103878095Y-51886904D01*
X103878095Y-51601190D01*
X103925714Y-51505952D01*
X103973333Y-51458333D01*
X104068571Y-51410714D01*
X104259047Y-51410714D01*
X104354285Y-51458333D01*
X104830476Y-52077380D02*
X104830476Y-51077380D01*
X105259047Y-52077380D02*
X105259047Y-51553571D01*
X105211428Y-51458333D01*
X105116190Y-51410714D01*
X104973333Y-51410714D01*
X104878095Y-51458333D01*
X104830476Y-51505952D01*
X105592380Y-51410714D02*
X105973333Y-51410714D01*
X105735238Y-51077380D02*
X105735238Y-51934523D01*
X105782857Y-52029761D01*
X105878095Y-52077380D01*
X105973333Y-52077380D01*
X49331714Y-91813571D02*
X49474571Y-91861190D01*
X49522190Y-91908809D01*
X49569809Y-92004047D01*
X49569809Y-92146904D01*
X49522190Y-92242142D01*
X49474571Y-92289761D01*
X49379333Y-92337380D01*
X48998380Y-92337380D01*
X48998380Y-91337380D01*
X49331714Y-91337380D01*
X49426952Y-91385000D01*
X49474571Y-91432619D01*
X49522190Y-91527857D01*
X49522190Y-91623095D01*
X49474571Y-91718333D01*
X49426952Y-91765952D01*
X49331714Y-91813571D01*
X48998380Y-91813571D01*
X50426952Y-92337380D02*
X50426952Y-91813571D01*
X50379333Y-91718333D01*
X50284095Y-91670714D01*
X50093619Y-91670714D01*
X49998380Y-91718333D01*
X50426952Y-92289761D02*
X50331714Y-92337380D01*
X50093619Y-92337380D01*
X49998380Y-92289761D01*
X49950761Y-92194523D01*
X49950761Y-92099285D01*
X49998380Y-92004047D01*
X50093619Y-91956428D01*
X50331714Y-91956428D01*
X50426952Y-91908809D01*
X51331714Y-92289761D02*
X51236476Y-92337380D01*
X51046000Y-92337380D01*
X50950761Y-92289761D01*
X50903142Y-92242142D01*
X50855523Y-92146904D01*
X50855523Y-91861190D01*
X50903142Y-91765952D01*
X50950761Y-91718333D01*
X51046000Y-91670714D01*
X51236476Y-91670714D01*
X51331714Y-91718333D01*
X51760285Y-92337380D02*
X51760285Y-91337380D01*
X51855523Y-91956428D02*
X52141238Y-92337380D01*
X52141238Y-91670714D02*
X51760285Y-92051666D01*
X49855523Y-93987380D02*
X49379333Y-93987380D01*
X49379333Y-92987380D01*
X50569809Y-93939761D02*
X50474571Y-93987380D01*
X50284095Y-93987380D01*
X50188857Y-93939761D01*
X50141238Y-93844523D01*
X50141238Y-93463571D01*
X50188857Y-93368333D01*
X50284095Y-93320714D01*
X50474571Y-93320714D01*
X50569809Y-93368333D01*
X50617428Y-93463571D01*
X50617428Y-93558809D01*
X50141238Y-93654047D01*
X50903142Y-93320714D02*
X51284095Y-93320714D01*
X51046000Y-93987380D02*
X51046000Y-93130238D01*
X51093619Y-93035000D01*
X51188857Y-92987380D01*
X51284095Y-92987380D01*
X51474571Y-93320714D02*
X51855523Y-93320714D01*
X51617428Y-92987380D02*
X51617428Y-93844523D01*
X51665047Y-93939761D01*
X51760285Y-93987380D01*
X51855523Y-93987380D01*
X49061904Y-49903571D02*
X48728571Y-49903571D01*
X48728571Y-50427380D02*
X48728571Y-49427380D01*
X49204761Y-49427380D01*
X49585714Y-50427380D02*
X49585714Y-49760714D01*
X49585714Y-49951190D02*
X49633333Y-49855952D01*
X49680952Y-49808333D01*
X49776190Y-49760714D01*
X49871428Y-49760714D01*
X50347619Y-50427380D02*
X50252380Y-50379761D01*
X50204761Y-50332142D01*
X50157142Y-50236904D01*
X50157142Y-49951190D01*
X50204761Y-49855952D01*
X50252380Y-49808333D01*
X50347619Y-49760714D01*
X50490476Y-49760714D01*
X50585714Y-49808333D01*
X50633333Y-49855952D01*
X50680952Y-49951190D01*
X50680952Y-50236904D01*
X50633333Y-50332142D01*
X50585714Y-50379761D01*
X50490476Y-50427380D01*
X50347619Y-50427380D01*
X51109523Y-49760714D02*
X51109523Y-50427380D01*
X51109523Y-49855952D02*
X51157142Y-49808333D01*
X51252380Y-49760714D01*
X51395238Y-49760714D01*
X51490476Y-49808333D01*
X51538095Y-49903571D01*
X51538095Y-50427380D01*
X51871428Y-49760714D02*
X52252380Y-49760714D01*
X52014285Y-49427380D02*
X52014285Y-50284523D01*
X52061904Y-50379761D01*
X52157142Y-50427380D01*
X52252380Y-50427380D01*
X50109523Y-52077380D02*
X49633333Y-52077380D01*
X49633333Y-51077380D01*
X50823809Y-52029761D02*
X50728571Y-52077380D01*
X50538095Y-52077380D01*
X50442857Y-52029761D01*
X50395238Y-51934523D01*
X50395238Y-51553571D01*
X50442857Y-51458333D01*
X50538095Y-51410714D01*
X50728571Y-51410714D01*
X50823809Y-51458333D01*
X50871428Y-51553571D01*
X50871428Y-51648809D01*
X50395238Y-51744047D01*
X51157142Y-51410714D02*
X51538095Y-51410714D01*
X51300000Y-52077380D02*
X51300000Y-51220238D01*
X51347619Y-51125000D01*
X51442857Y-51077380D01*
X51538095Y-51077380D01*
X51728571Y-51410714D02*
X52109523Y-51410714D01*
X51871428Y-51077380D02*
X51871428Y-51934523D01*
X51919047Y-52029761D01*
X52014285Y-52077380D01*
X52109523Y-52077380D01*
D11*
X64004000Y-50800000D02*
X91944000Y-50800000D01*
X91944000Y-50800000D02*
X91944000Y-99060000D01*
X91944000Y-99060000D02*
X86864000Y-99060000D01*
X69084000Y-99060000D02*
X64004000Y-99060000D01*
X64004000Y-99060000D02*
X64004000Y-50800000D01*
X69084000Y-99060000D02*
X69084000Y-105410000D01*
X69084000Y-105410000D02*
X86864000Y-105410000D01*
X86864000Y-105410000D02*
X86864000Y-99060000D01*
D12*
X68564000Y-52070000D02*
G75*
G03*
X68564000Y-52070000I-750000J0D01*
G01*
D11*
X69480000Y-37310000D02*
X69480000Y-39910000D01*
X54780000Y-37310000D02*
X69480000Y-37310000D01*
X69480000Y-46510000D02*
X67580000Y-46510000D01*
X69480000Y-43810000D02*
X69480000Y-46510000D01*
X54780000Y-46510000D02*
X54780000Y-37310000D01*
X63580000Y-46510000D02*
X54780000Y-46510000D01*
X68630000Y-37110000D02*
X69680000Y-37110000D01*
X69680000Y-38160000D02*
X69680000Y-37110000D01*
X72330000Y-47050000D02*
X72330000Y-45720000D01*
X73660000Y-47050000D02*
X72330000Y-47050000D01*
X74930000Y-47050000D02*
X74930000Y-44390000D01*
X74930000Y-44390000D02*
X82610000Y-44390000D01*
X74930000Y-47050000D02*
X82610000Y-47050000D01*
X82610000Y-47050000D02*
X82610000Y-44390000D01*
X82610000Y-111820000D02*
X82610000Y-109160000D01*
X74930000Y-111820000D02*
X82610000Y-111820000D01*
X74930000Y-109160000D02*
X82610000Y-109160000D01*
X74930000Y-111820000D02*
X74930000Y-109160000D01*
X73660000Y-111820000D02*
X72330000Y-111820000D01*
X72330000Y-111820000D02*
X72330000Y-110490000D01*
X36770000Y-82610000D02*
X39430000Y-82610000D01*
X36770000Y-74930000D02*
X36770000Y-82610000D01*
X39430000Y-74930000D02*
X39430000Y-82610000D01*
X36770000Y-74930000D02*
X39430000Y-74930000D01*
X36770000Y-73660000D02*
X36770000Y-72330000D01*
X36770000Y-72330000D02*
X38100000Y-72330000D01*
X116780000Y-72330000D02*
X118110000Y-72330000D01*
X116780000Y-73660000D02*
X116780000Y-72330000D01*
X116780000Y-74930000D02*
X119440000Y-74930000D01*
X119440000Y-74930000D02*
X119440000Y-82610000D01*
X116780000Y-74930000D02*
X116780000Y-82610000D01*
X116780000Y-82610000D02*
X119440000Y-82610000D01*
X57210000Y-73600000D02*
X54550000Y-73600000D01*
X57210000Y-76200000D02*
X57210000Y-73600000D01*
X54550000Y-76200000D02*
X54550000Y-73600000D01*
X57210000Y-76200000D02*
X54550000Y-76200000D01*
X57210000Y-77470000D02*
X57210000Y-78800000D01*
X57210000Y-78800000D02*
X55880000Y-78800000D01*
X100390000Y-78800000D02*
X99060000Y-78800000D01*
X100390000Y-77470000D02*
X100390000Y-78800000D01*
X100390000Y-76200000D02*
X97730000Y-76200000D01*
X97730000Y-76200000D02*
X97730000Y-73600000D01*
X100390000Y-76200000D02*
X100390000Y-73600000D01*
X100390000Y-73600000D02*
X97730000Y-73600000D01*
X36770000Y-48200000D02*
X38100000Y-48200000D01*
X36770000Y-49530000D02*
X36770000Y-48200000D01*
X36770000Y-50800000D02*
X39430000Y-50800000D01*
X39430000Y-50800000D02*
X39430000Y-63560000D01*
X36770000Y-50800000D02*
X36770000Y-63560000D01*
X36770000Y-63560000D02*
X39430000Y-63560000D01*
X36770000Y-90110000D02*
X38100000Y-90110000D01*
X36770000Y-91440000D02*
X36770000Y-90110000D01*
X36770000Y-92710000D02*
X39430000Y-92710000D01*
X39430000Y-92710000D02*
X39430000Y-105470000D01*
X36770000Y-92710000D02*
X36770000Y-105470000D01*
X36770000Y-105470000D02*
X39430000Y-105470000D01*
X116780000Y-63560000D02*
X119440000Y-63560000D01*
X116780000Y-50800000D02*
X116780000Y-63560000D01*
X119440000Y-50800000D02*
X119440000Y-63560000D01*
X116780000Y-50800000D02*
X119440000Y-50800000D01*
X116780000Y-49530000D02*
X116780000Y-48200000D01*
X116780000Y-48200000D02*
X118110000Y-48200000D01*
X116780000Y-105470000D02*
X119440000Y-105470000D01*
X116780000Y-92710000D02*
X116780000Y-105470000D01*
X119440000Y-92710000D02*
X119440000Y-105470000D01*
X116780000Y-92710000D02*
X119440000Y-92710000D01*
X116780000Y-91440000D02*
X116780000Y-90110000D01*
X116780000Y-90110000D02*
X118110000Y-90110000D01*
X80110000Y-53880000D02*
X77370000Y-53880000D01*
X77370000Y-53880000D02*
X77370000Y-60420000D01*
X77370000Y-60420000D02*
X80110000Y-60420000D01*
X80110000Y-60420000D02*
X80110000Y-53880000D01*
X78740000Y-53110000D02*
X78740000Y-53880000D01*
X78740000Y-61190000D02*
X78740000Y-60420000D01*
X82550000Y-53110000D02*
X82550000Y-53880000D01*
X82550000Y-61190000D02*
X82550000Y-60420000D01*
X81180000Y-53880000D02*
X81180000Y-60420000D01*
X83920000Y-53880000D02*
X81180000Y-53880000D01*
X83920000Y-60420000D02*
X83920000Y-53880000D01*
X81180000Y-60420000D02*
X83920000Y-60420000D01*
X77370000Y-104870000D02*
X80110000Y-104870000D01*
X80110000Y-104870000D02*
X80110000Y-98330000D01*
X80110000Y-98330000D02*
X77370000Y-98330000D01*
X77370000Y-98330000D02*
X77370000Y-104870000D01*
X78740000Y-105640000D02*
X78740000Y-104870000D01*
X78740000Y-97560000D02*
X78740000Y-98330000D01*
X82550000Y-105640000D02*
X82550000Y-104870000D01*
X82550000Y-97560000D02*
X82550000Y-98330000D01*
X83920000Y-104870000D02*
X83920000Y-98330000D01*
X81180000Y-104870000D02*
X83920000Y-104870000D01*
X81180000Y-98330000D02*
X81180000Y-104870000D01*
X83920000Y-98330000D02*
X81180000Y-98330000D01*
X43720000Y-77370000D02*
X43720000Y-80110000D01*
X43720000Y-80110000D02*
X50260000Y-80110000D01*
X50260000Y-80110000D02*
X50260000Y-77370000D01*
X50260000Y-77370000D02*
X43720000Y-77370000D01*
X42950000Y-78740000D02*
X43720000Y-78740000D01*
X51030000Y-78740000D02*
X50260000Y-78740000D01*
X42950000Y-82550000D02*
X43720000Y-82550000D01*
X51030000Y-82550000D02*
X50260000Y-82550000D01*
X43720000Y-83920000D02*
X50260000Y-83920000D01*
X43720000Y-81180000D02*
X43720000Y-83920000D01*
X50260000Y-81180000D02*
X43720000Y-81180000D01*
X50260000Y-83920000D02*
X50260000Y-81180000D01*
X111220000Y-80110000D02*
X111220000Y-77370000D01*
X111220000Y-77370000D02*
X104680000Y-77370000D01*
X104680000Y-77370000D02*
X104680000Y-80110000D01*
X104680000Y-80110000D02*
X111220000Y-80110000D01*
X111990000Y-78740000D02*
X111220000Y-78740000D01*
X103910000Y-78740000D02*
X104680000Y-78740000D01*
X111990000Y-82550000D02*
X111220000Y-82550000D01*
X103910000Y-82550000D02*
X104680000Y-82550000D01*
X111220000Y-81180000D02*
X104680000Y-81180000D01*
X111220000Y-83920000D02*
X111220000Y-81180000D01*
X104680000Y-83920000D02*
X111220000Y-83920000D01*
X104680000Y-81180000D02*
X104680000Y-83920000D01*
X50260000Y-76300000D02*
X50260000Y-73560000D01*
X50260000Y-73560000D02*
X43720000Y-73560000D01*
X43720000Y-73560000D02*
X43720000Y-76300000D01*
X43720000Y-76300000D02*
X50260000Y-76300000D01*
X51030000Y-74930000D02*
X50260000Y-74930000D01*
X42950000Y-74930000D02*
X43720000Y-74930000D01*
X111990000Y-74930000D02*
X111220000Y-74930000D01*
X103910000Y-74930000D02*
X104680000Y-74930000D01*
X111220000Y-73560000D02*
X104680000Y-73560000D01*
X111220000Y-76300000D02*
X111220000Y-73560000D01*
X104680000Y-76300000D02*
X111220000Y-76300000D01*
X104680000Y-73560000D02*
X104680000Y-76300000D01*
X47220000Y-66040000D02*
X46450000Y-66040000D01*
X39140000Y-66040000D02*
X39910000Y-66040000D01*
X46450000Y-64670000D02*
X39910000Y-64670000D01*
X46450000Y-67410000D02*
X46450000Y-64670000D01*
X39910000Y-67410000D02*
X46450000Y-67410000D01*
X39910000Y-64670000D02*
X39910000Y-67410000D01*
X59920000Y-66040000D02*
X59150000Y-66040000D01*
X51840000Y-66040000D02*
X52610000Y-66040000D01*
X59150000Y-64670000D02*
X52610000Y-64670000D01*
X59150000Y-67410000D02*
X59150000Y-64670000D01*
X52610000Y-67410000D02*
X59150000Y-67410000D01*
X52610000Y-64670000D02*
X52610000Y-67410000D01*
X47220000Y-107950000D02*
X46450000Y-107950000D01*
X39140000Y-107950000D02*
X39910000Y-107950000D01*
X46450000Y-106580000D02*
X39910000Y-106580000D01*
X46450000Y-109320000D02*
X46450000Y-106580000D01*
X39910000Y-109320000D02*
X46450000Y-109320000D01*
X39910000Y-106580000D02*
X39910000Y-109320000D01*
X59920000Y-107950000D02*
X59150000Y-107950000D01*
X51840000Y-107950000D02*
X52610000Y-107950000D01*
X59150000Y-106580000D02*
X52610000Y-106580000D01*
X59150000Y-109320000D02*
X59150000Y-106580000D01*
X52610000Y-109320000D02*
X59150000Y-109320000D01*
X52610000Y-106580000D02*
X52610000Y-109320000D01*
X39910000Y-68480000D02*
X39910000Y-71220000D01*
X39910000Y-71220000D02*
X46450000Y-71220000D01*
X46450000Y-71220000D02*
X46450000Y-68480000D01*
X46450000Y-68480000D02*
X39910000Y-68480000D01*
X39140000Y-69850000D02*
X39910000Y-69850000D01*
X47220000Y-69850000D02*
X46450000Y-69850000D01*
X52610000Y-68480000D02*
X52610000Y-71220000D01*
X52610000Y-71220000D02*
X59150000Y-71220000D01*
X59150000Y-71220000D02*
X59150000Y-68480000D01*
X59150000Y-68480000D02*
X52610000Y-68480000D01*
X51840000Y-69850000D02*
X52610000Y-69850000D01*
X59920000Y-69850000D02*
X59150000Y-69850000D01*
X39910000Y-110390000D02*
X39910000Y-113130000D01*
X39910000Y-113130000D02*
X46450000Y-113130000D01*
X46450000Y-113130000D02*
X46450000Y-110390000D01*
X46450000Y-110390000D02*
X39910000Y-110390000D01*
X39140000Y-111760000D02*
X39910000Y-111760000D01*
X47220000Y-111760000D02*
X46450000Y-111760000D01*
X52610000Y-110390000D02*
X52610000Y-113130000D01*
X52610000Y-113130000D02*
X59150000Y-113130000D01*
X59150000Y-113130000D02*
X59150000Y-110390000D01*
X59150000Y-110390000D02*
X52610000Y-110390000D01*
X51840000Y-111760000D02*
X52610000Y-111760000D01*
X59920000Y-111760000D02*
X59150000Y-111760000D01*
X108990000Y-66040000D02*
X109760000Y-66040000D01*
X117070000Y-66040000D02*
X116300000Y-66040000D01*
X109760000Y-67410000D02*
X116300000Y-67410000D01*
X109760000Y-64670000D02*
X109760000Y-67410000D01*
X116300000Y-64670000D02*
X109760000Y-64670000D01*
X116300000Y-67410000D02*
X116300000Y-64670000D01*
X96290000Y-66040000D02*
X97060000Y-66040000D01*
X104370000Y-66040000D02*
X103600000Y-66040000D01*
X97060000Y-67410000D02*
X103600000Y-67410000D01*
X97060000Y-64670000D02*
X97060000Y-67410000D01*
X103600000Y-64670000D02*
X97060000Y-64670000D01*
X103600000Y-67410000D02*
X103600000Y-64670000D01*
X108990000Y-107950000D02*
X109760000Y-107950000D01*
X117070000Y-107950000D02*
X116300000Y-107950000D01*
X109760000Y-109320000D02*
X116300000Y-109320000D01*
X109760000Y-106580000D02*
X109760000Y-109320000D01*
X116300000Y-106580000D02*
X109760000Y-106580000D01*
X116300000Y-109320000D02*
X116300000Y-106580000D01*
X96290000Y-107950000D02*
X97060000Y-107950000D01*
X104370000Y-107950000D02*
X103600000Y-107950000D01*
X97060000Y-109320000D02*
X103600000Y-109320000D01*
X97060000Y-106580000D02*
X97060000Y-109320000D01*
X103600000Y-106580000D02*
X97060000Y-106580000D01*
X103600000Y-109320000D02*
X103600000Y-106580000D01*
X116300000Y-71220000D02*
X116300000Y-68480000D01*
X116300000Y-68480000D02*
X109760000Y-68480000D01*
X109760000Y-68480000D02*
X109760000Y-71220000D01*
X109760000Y-71220000D02*
X116300000Y-71220000D01*
X117070000Y-69850000D02*
X116300000Y-69850000D01*
X108990000Y-69850000D02*
X109760000Y-69850000D01*
X103600000Y-71220000D02*
X103600000Y-68480000D01*
X103600000Y-68480000D02*
X97060000Y-68480000D01*
X97060000Y-68480000D02*
X97060000Y-71220000D01*
X97060000Y-71220000D02*
X103600000Y-71220000D01*
X104370000Y-69850000D02*
X103600000Y-69850000D01*
X96290000Y-69850000D02*
X97060000Y-69850000D01*
X116300000Y-113130000D02*
X116300000Y-110390000D01*
X116300000Y-110390000D02*
X109760000Y-110390000D01*
X109760000Y-110390000D02*
X109760000Y-113130000D01*
X109760000Y-113130000D02*
X116300000Y-113130000D01*
X117070000Y-111760000D02*
X116300000Y-111760000D01*
X108990000Y-111760000D02*
X109760000Y-111760000D01*
X103600000Y-113130000D02*
X103600000Y-110390000D01*
X103600000Y-110390000D02*
X97060000Y-110390000D01*
X97060000Y-110390000D02*
X97060000Y-113130000D01*
X97060000Y-113130000D02*
X103600000Y-113130000D01*
X104370000Y-111760000D02*
X103600000Y-111760000D01*
X96290000Y-111760000D02*
X97060000Y-111760000D01*
X59690000Y-62230000D02*
X60960000Y-63500000D01*
X58420000Y-48260000D02*
X58420000Y-63500000D01*
X58420000Y-63500000D02*
X43180000Y-63500000D01*
X43180000Y-63500000D02*
X43180000Y-48260000D01*
X43180000Y-48260000D02*
X58420000Y-48260000D01*
X59690000Y-62230000D02*
X60960000Y-62230000D01*
X59690000Y-62230000D02*
X60960000Y-60960000D01*
X60960000Y-62230000D02*
X62230000Y-62230000D01*
X42164000Y-61976000D02*
X41656000Y-62992000D01*
X42672000Y-62992000D02*
X42164000Y-61976000D01*
X42672000Y-104902000D02*
X42164000Y-103886000D01*
X42164000Y-103886000D02*
X41656000Y-104902000D01*
X60960000Y-104140000D02*
X62230000Y-104140000D01*
X59690000Y-104140000D02*
X60960000Y-102870000D01*
X59690000Y-104140000D02*
X60960000Y-104140000D01*
X43180000Y-90170000D02*
X58420000Y-90170000D01*
X43180000Y-105410000D02*
X43180000Y-90170000D01*
X58420000Y-105410000D02*
X43180000Y-105410000D01*
X58420000Y-90170000D02*
X58420000Y-105410000D01*
X59690000Y-104140000D02*
X60960000Y-105410000D01*
X95250000Y-49530000D02*
X93980000Y-48260000D01*
X96520000Y-63500000D02*
X96520000Y-48260000D01*
X96520000Y-48260000D02*
X111760000Y-48260000D01*
X111760000Y-48260000D02*
X111760000Y-63500000D01*
X111760000Y-63500000D02*
X96520000Y-63500000D01*
X95250000Y-49530000D02*
X93980000Y-49530000D01*
X95250000Y-49530000D02*
X93980000Y-50800000D01*
X93980000Y-49530000D02*
X92710000Y-49530000D01*
X112776000Y-49784000D02*
X113284000Y-48768000D01*
X112268000Y-48768000D02*
X112776000Y-49784000D01*
X112268000Y-90678000D02*
X112776000Y-91694000D01*
X112776000Y-91694000D02*
X113284000Y-90678000D01*
X93980000Y-91440000D02*
X92710000Y-91440000D01*
X95250000Y-91440000D02*
X93980000Y-92710000D01*
X95250000Y-91440000D02*
X93980000Y-91440000D01*
X111760000Y-105410000D02*
X96520000Y-105410000D01*
X111760000Y-90170000D02*
X111760000Y-105410000D01*
X96520000Y-90170000D02*
X111760000Y-90170000D01*
X96520000Y-105410000D02*
X96520000Y-90170000D01*
X95250000Y-91440000D02*
X93980000Y-90170000D01*
D10*
X65913095Y-105007380D02*
X65913095Y-104007380D01*
X65913095Y-104483571D02*
X66484523Y-104483571D01*
X66484523Y-105007380D02*
X66484523Y-104007380D01*
X66865476Y-104007380D02*
X67484523Y-104007380D01*
X67151190Y-104388333D01*
X67294047Y-104388333D01*
X67389285Y-104435952D01*
X67436904Y-104483571D01*
X67484523Y-104578809D01*
X67484523Y-104816904D01*
X67436904Y-104912142D01*
X67389285Y-104959761D01*
X67294047Y-105007380D01*
X67008333Y-105007380D01*
X66913095Y-104959761D01*
X66865476Y-104912142D01*
X42418095Y-37062380D02*
X42418095Y-36062380D01*
X42418095Y-36538571D02*
X42989523Y-36538571D01*
X42989523Y-37062380D02*
X42989523Y-36062380D01*
X43418095Y-36157619D02*
X43465714Y-36110000D01*
X43560952Y-36062380D01*
X43799047Y-36062380D01*
X43894285Y-36110000D01*
X43941904Y-36157619D01*
X43989523Y-36252857D01*
X43989523Y-36348095D01*
X43941904Y-36490952D01*
X43370476Y-37062380D01*
X43989523Y-37062380D01*
X111633095Y-37062380D02*
X111633095Y-36062380D01*
X111633095Y-36538571D02*
X112204523Y-36538571D01*
X112204523Y-37062380D02*
X112204523Y-36062380D01*
X113204523Y-37062380D02*
X112633095Y-37062380D01*
X112918809Y-37062380D02*
X112918809Y-36062380D01*
X112823571Y-36205238D01*
X112728333Y-36300476D01*
X112633095Y-36348095D01*
X75438095Y-49617380D02*
X75438095Y-50426904D01*
X75485714Y-50522142D01*
X75533333Y-50569761D01*
X75628571Y-50617380D01*
X75819047Y-50617380D01*
X75914285Y-50569761D01*
X75961904Y-50522142D01*
X76009523Y-50426904D01*
X76009523Y-49617380D01*
X77009523Y-50617380D02*
X76438095Y-50617380D01*
X76723809Y-50617380D02*
X76723809Y-49617380D01*
X76628571Y-49760238D01*
X76533333Y-49855476D01*
X76438095Y-49903095D01*
X70945476Y-38187380D02*
X70945476Y-38901666D01*
X70897857Y-39044523D01*
X70802619Y-39139761D01*
X70659761Y-39187380D01*
X70564523Y-39187380D01*
X71945476Y-39187380D02*
X71374047Y-39187380D01*
X71659761Y-39187380D02*
X71659761Y-38187380D01*
X71564523Y-38330238D01*
X71469285Y-38425476D01*
X71374047Y-38473095D01*
X72897857Y-39187380D02*
X72326428Y-39187380D01*
X72612142Y-39187380D02*
X72612142Y-38187380D01*
X72516904Y-38330238D01*
X72421666Y-38425476D01*
X72326428Y-38473095D01*
X70782380Y-46053333D02*
X71496666Y-46053333D01*
X71639523Y-46100952D01*
X71734761Y-46196190D01*
X71782380Y-46339047D01*
X71782380Y-46434285D01*
X71782380Y-45053333D02*
X71782380Y-45624761D01*
X71782380Y-45339047D02*
X70782380Y-45339047D01*
X70925238Y-45434285D01*
X71020476Y-45529523D01*
X71068095Y-45624761D01*
X73326666Y-107402380D02*
X73326666Y-108116666D01*
X73279047Y-108259523D01*
X73183809Y-108354761D01*
X73040952Y-108402380D01*
X72945714Y-108402380D01*
X73755238Y-107497619D02*
X73802857Y-107450000D01*
X73898095Y-107402380D01*
X74136190Y-107402380D01*
X74231428Y-107450000D01*
X74279047Y-107497619D01*
X74326666Y-107592857D01*
X74326666Y-107688095D01*
X74279047Y-107830952D01*
X73707619Y-108402380D01*
X74326666Y-108402380D01*
X35226666Y-70782380D02*
X35226666Y-71496666D01*
X35179047Y-71639523D01*
X35083809Y-71734761D01*
X34940952Y-71782380D01*
X34845714Y-71782380D01*
X35607619Y-70782380D02*
X36226666Y-70782380D01*
X35893333Y-71163333D01*
X36036190Y-71163333D01*
X36131428Y-71210952D01*
X36179047Y-71258571D01*
X36226666Y-71353809D01*
X36226666Y-71591904D01*
X36179047Y-71687142D01*
X36131428Y-71734761D01*
X36036190Y-71782380D01*
X35750476Y-71782380D01*
X35655238Y-71734761D01*
X35607619Y-71687142D01*
X120316666Y-70782380D02*
X120316666Y-71496666D01*
X120269047Y-71639523D01*
X120173809Y-71734761D01*
X120030952Y-71782380D01*
X119935714Y-71782380D01*
X121221428Y-71115714D02*
X121221428Y-71782380D01*
X120983333Y-70734761D02*
X120745238Y-71449047D01*
X121364285Y-71449047D01*
X55546666Y-79252380D02*
X55546666Y-79966666D01*
X55499047Y-80109523D01*
X55403809Y-80204761D01*
X55260952Y-80252380D01*
X55165714Y-80252380D01*
X56499047Y-79252380D02*
X56022857Y-79252380D01*
X55975238Y-79728571D01*
X56022857Y-79680952D01*
X56118095Y-79633333D01*
X56356190Y-79633333D01*
X56451428Y-79680952D01*
X56499047Y-79728571D01*
X56546666Y-79823809D01*
X56546666Y-80061904D01*
X56499047Y-80157142D01*
X56451428Y-80204761D01*
X56356190Y-80252380D01*
X56118095Y-80252380D01*
X56022857Y-80204761D01*
X55975238Y-80157142D01*
X98726666Y-79252380D02*
X98726666Y-79966666D01*
X98679047Y-80109523D01*
X98583809Y-80204761D01*
X98440952Y-80252380D01*
X98345714Y-80252380D01*
X99631428Y-79252380D02*
X99440952Y-79252380D01*
X99345714Y-79300000D01*
X99298095Y-79347619D01*
X99202857Y-79490476D01*
X99155238Y-79680952D01*
X99155238Y-80061904D01*
X99202857Y-80157142D01*
X99250476Y-80204761D01*
X99345714Y-80252380D01*
X99536190Y-80252380D01*
X99631428Y-80204761D01*
X99679047Y-80157142D01*
X99726666Y-80061904D01*
X99726666Y-79823809D01*
X99679047Y-79728571D01*
X99631428Y-79680952D01*
X99536190Y-79633333D01*
X99345714Y-79633333D01*
X99250476Y-79680952D01*
X99202857Y-79728571D01*
X99155238Y-79823809D01*
X37766666Y-46652380D02*
X37766666Y-47366666D01*
X37719047Y-47509523D01*
X37623809Y-47604761D01*
X37480952Y-47652380D01*
X37385714Y-47652380D01*
X38147619Y-46652380D02*
X38814285Y-46652380D01*
X38385714Y-47652380D01*
X37766666Y-88562380D02*
X37766666Y-89276666D01*
X37719047Y-89419523D01*
X37623809Y-89514761D01*
X37480952Y-89562380D01*
X37385714Y-89562380D01*
X38385714Y-88990952D02*
X38290476Y-88943333D01*
X38242857Y-88895714D01*
X38195238Y-88800476D01*
X38195238Y-88752857D01*
X38242857Y-88657619D01*
X38290476Y-88610000D01*
X38385714Y-88562380D01*
X38576190Y-88562380D01*
X38671428Y-88610000D01*
X38719047Y-88657619D01*
X38766666Y-88752857D01*
X38766666Y-88800476D01*
X38719047Y-88895714D01*
X38671428Y-88943333D01*
X38576190Y-88990952D01*
X38385714Y-88990952D01*
X38290476Y-89038571D01*
X38242857Y-89086190D01*
X38195238Y-89181428D01*
X38195238Y-89371904D01*
X38242857Y-89467142D01*
X38290476Y-89514761D01*
X38385714Y-89562380D01*
X38576190Y-89562380D01*
X38671428Y-89514761D01*
X38719047Y-89467142D01*
X38766666Y-89371904D01*
X38766666Y-89181428D01*
X38719047Y-89086190D01*
X38671428Y-89038571D01*
X38576190Y-88990952D01*
X117776666Y-46652380D02*
X117776666Y-47366666D01*
X117729047Y-47509523D01*
X117633809Y-47604761D01*
X117490952Y-47652380D01*
X117395714Y-47652380D01*
X118300476Y-47652380D02*
X118490952Y-47652380D01*
X118586190Y-47604761D01*
X118633809Y-47557142D01*
X118729047Y-47414285D01*
X118776666Y-47223809D01*
X118776666Y-46842857D01*
X118729047Y-46747619D01*
X118681428Y-46700000D01*
X118586190Y-46652380D01*
X118395714Y-46652380D01*
X118300476Y-46700000D01*
X118252857Y-46747619D01*
X118205238Y-46842857D01*
X118205238Y-47080952D01*
X118252857Y-47176190D01*
X118300476Y-47223809D01*
X118395714Y-47271428D01*
X118586190Y-47271428D01*
X118681428Y-47223809D01*
X118729047Y-47176190D01*
X118776666Y-47080952D01*
X117300476Y-88562380D02*
X117300476Y-89276666D01*
X117252857Y-89419523D01*
X117157619Y-89514761D01*
X117014761Y-89562380D01*
X116919523Y-89562380D01*
X118300476Y-89562380D02*
X117729047Y-89562380D01*
X118014761Y-89562380D02*
X118014761Y-88562380D01*
X117919523Y-88705238D01*
X117824285Y-88800476D01*
X117729047Y-88848095D01*
X118919523Y-88562380D02*
X119014761Y-88562380D01*
X119110000Y-88610000D01*
X119157619Y-88657619D01*
X119205238Y-88752857D01*
X119252857Y-88943333D01*
X119252857Y-89181428D01*
X119205238Y-89371904D01*
X119157619Y-89467142D01*
X119110000Y-89514761D01*
X119014761Y-89562380D01*
X118919523Y-89562380D01*
X118824285Y-89514761D01*
X118776666Y-89467142D01*
X118729047Y-89371904D01*
X118681428Y-89181428D01*
X118681428Y-88943333D01*
X118729047Y-88752857D01*
X118776666Y-88657619D01*
X118824285Y-88610000D01*
X118919523Y-88562380D01*
X79192380Y-57316666D02*
X78716190Y-57650000D01*
X79192380Y-57888095D02*
X78192380Y-57888095D01*
X78192380Y-57507142D01*
X78240000Y-57411904D01*
X78287619Y-57364285D01*
X78382857Y-57316666D01*
X78525714Y-57316666D01*
X78620952Y-57364285D01*
X78668571Y-57411904D01*
X78716190Y-57507142D01*
X78716190Y-57888095D01*
X79192380Y-56364285D02*
X79192380Y-56935714D01*
X79192380Y-56650000D02*
X78192380Y-56650000D01*
X78335238Y-56745238D01*
X78430476Y-56840476D01*
X78478095Y-56935714D01*
X83002380Y-57316666D02*
X82526190Y-57650000D01*
X83002380Y-57888095D02*
X82002380Y-57888095D01*
X82002380Y-57507142D01*
X82050000Y-57411904D01*
X82097619Y-57364285D01*
X82192857Y-57316666D01*
X82335714Y-57316666D01*
X82430952Y-57364285D01*
X82478571Y-57411904D01*
X82526190Y-57507142D01*
X82526190Y-57888095D01*
X82097619Y-56935714D02*
X82050000Y-56888095D01*
X82002380Y-56792857D01*
X82002380Y-56554761D01*
X82050000Y-56459523D01*
X82097619Y-56411904D01*
X82192857Y-56364285D01*
X82288095Y-56364285D01*
X82430952Y-56411904D01*
X83002380Y-56983333D01*
X83002380Y-56364285D01*
X79192380Y-101766666D02*
X78716190Y-102100000D01*
X79192380Y-102338095D02*
X78192380Y-102338095D01*
X78192380Y-101957142D01*
X78240000Y-101861904D01*
X78287619Y-101814285D01*
X78382857Y-101766666D01*
X78525714Y-101766666D01*
X78620952Y-101814285D01*
X78668571Y-101861904D01*
X78716190Y-101957142D01*
X78716190Y-102338095D01*
X78192380Y-101433333D02*
X78192380Y-100814285D01*
X78573333Y-101147619D01*
X78573333Y-101004761D01*
X78620952Y-100909523D01*
X78668571Y-100861904D01*
X78763809Y-100814285D01*
X79001904Y-100814285D01*
X79097142Y-100861904D01*
X79144761Y-100909523D01*
X79192380Y-101004761D01*
X79192380Y-101290476D01*
X79144761Y-101385714D01*
X79097142Y-101433333D01*
X83002380Y-101766666D02*
X82526190Y-102100000D01*
X83002380Y-102338095D02*
X82002380Y-102338095D01*
X82002380Y-101957142D01*
X82050000Y-101861904D01*
X82097619Y-101814285D01*
X82192857Y-101766666D01*
X82335714Y-101766666D01*
X82430952Y-101814285D01*
X82478571Y-101861904D01*
X82526190Y-101957142D01*
X82526190Y-102338095D01*
X82335714Y-100909523D02*
X83002380Y-100909523D01*
X81954761Y-101147619D02*
X82669047Y-101385714D01*
X82669047Y-100766666D01*
X46823333Y-79192380D02*
X46490000Y-78716190D01*
X46251904Y-79192380D02*
X46251904Y-78192380D01*
X46632857Y-78192380D01*
X46728095Y-78240000D01*
X46775714Y-78287619D01*
X46823333Y-78382857D01*
X46823333Y-78525714D01*
X46775714Y-78620952D01*
X46728095Y-78668571D01*
X46632857Y-78716190D01*
X46251904Y-78716190D01*
X47728095Y-78192380D02*
X47251904Y-78192380D01*
X47204285Y-78668571D01*
X47251904Y-78620952D01*
X47347142Y-78573333D01*
X47585238Y-78573333D01*
X47680476Y-78620952D01*
X47728095Y-78668571D01*
X47775714Y-78763809D01*
X47775714Y-79001904D01*
X47728095Y-79097142D01*
X47680476Y-79144761D01*
X47585238Y-79192380D01*
X47347142Y-79192380D01*
X47251904Y-79144761D01*
X47204285Y-79097142D01*
X46823333Y-83002380D02*
X46490000Y-82526190D01*
X46251904Y-83002380D02*
X46251904Y-82002380D01*
X46632857Y-82002380D01*
X46728095Y-82050000D01*
X46775714Y-82097619D01*
X46823333Y-82192857D01*
X46823333Y-82335714D01*
X46775714Y-82430952D01*
X46728095Y-82478571D01*
X46632857Y-82526190D01*
X46251904Y-82526190D01*
X47680476Y-82002380D02*
X47490000Y-82002380D01*
X47394761Y-82050000D01*
X47347142Y-82097619D01*
X47251904Y-82240476D01*
X47204285Y-82430952D01*
X47204285Y-82811904D01*
X47251904Y-82907142D01*
X47299523Y-82954761D01*
X47394761Y-83002380D01*
X47585238Y-83002380D01*
X47680476Y-82954761D01*
X47728095Y-82907142D01*
X47775714Y-82811904D01*
X47775714Y-82573809D01*
X47728095Y-82478571D01*
X47680476Y-82430952D01*
X47585238Y-82383333D01*
X47394761Y-82383333D01*
X47299523Y-82430952D01*
X47251904Y-82478571D01*
X47204285Y-82573809D01*
X107783333Y-79192380D02*
X107450000Y-78716190D01*
X107211904Y-79192380D02*
X107211904Y-78192380D01*
X107592857Y-78192380D01*
X107688095Y-78240000D01*
X107735714Y-78287619D01*
X107783333Y-78382857D01*
X107783333Y-78525714D01*
X107735714Y-78620952D01*
X107688095Y-78668571D01*
X107592857Y-78716190D01*
X107211904Y-78716190D01*
X108116666Y-78192380D02*
X108783333Y-78192380D01*
X108354761Y-79192380D01*
X107783333Y-83002380D02*
X107450000Y-82526190D01*
X107211904Y-83002380D02*
X107211904Y-82002380D01*
X107592857Y-82002380D01*
X107688095Y-82050000D01*
X107735714Y-82097619D01*
X107783333Y-82192857D01*
X107783333Y-82335714D01*
X107735714Y-82430952D01*
X107688095Y-82478571D01*
X107592857Y-82526190D01*
X107211904Y-82526190D01*
X108354761Y-82430952D02*
X108259523Y-82383333D01*
X108211904Y-82335714D01*
X108164285Y-82240476D01*
X108164285Y-82192857D01*
X108211904Y-82097619D01*
X108259523Y-82050000D01*
X108354761Y-82002380D01*
X108545238Y-82002380D01*
X108640476Y-82050000D01*
X108688095Y-82097619D01*
X108735714Y-82192857D01*
X108735714Y-82240476D01*
X108688095Y-82335714D01*
X108640476Y-82383333D01*
X108545238Y-82430952D01*
X108354761Y-82430952D01*
X108259523Y-82478571D01*
X108211904Y-82526190D01*
X108164285Y-82621428D01*
X108164285Y-82811904D01*
X108211904Y-82907142D01*
X108259523Y-82954761D01*
X108354761Y-83002380D01*
X108545238Y-83002380D01*
X108640476Y-82954761D01*
X108688095Y-82907142D01*
X108735714Y-82811904D01*
X108735714Y-82621428D01*
X108688095Y-82526190D01*
X108640476Y-82478571D01*
X108545238Y-82430952D01*
X46823333Y-75382380D02*
X46490000Y-74906190D01*
X46251904Y-75382380D02*
X46251904Y-74382380D01*
X46632857Y-74382380D01*
X46728095Y-74430000D01*
X46775714Y-74477619D01*
X46823333Y-74572857D01*
X46823333Y-74715714D01*
X46775714Y-74810952D01*
X46728095Y-74858571D01*
X46632857Y-74906190D01*
X46251904Y-74906190D01*
X47299523Y-75382380D02*
X47490000Y-75382380D01*
X47585238Y-75334761D01*
X47632857Y-75287142D01*
X47728095Y-75144285D01*
X47775714Y-74953809D01*
X47775714Y-74572857D01*
X47728095Y-74477619D01*
X47680476Y-74430000D01*
X47585238Y-74382380D01*
X47394761Y-74382380D01*
X47299523Y-74430000D01*
X47251904Y-74477619D01*
X47204285Y-74572857D01*
X47204285Y-74810952D01*
X47251904Y-74906190D01*
X47299523Y-74953809D01*
X47394761Y-75001428D01*
X47585238Y-75001428D01*
X47680476Y-74953809D01*
X47728095Y-74906190D01*
X47775714Y-74810952D01*
X107307142Y-75382380D02*
X106973809Y-74906190D01*
X106735714Y-75382380D02*
X106735714Y-74382380D01*
X107116666Y-74382380D01*
X107211904Y-74430000D01*
X107259523Y-74477619D01*
X107307142Y-74572857D01*
X107307142Y-74715714D01*
X107259523Y-74810952D01*
X107211904Y-74858571D01*
X107116666Y-74906190D01*
X106735714Y-74906190D01*
X108259523Y-75382380D02*
X107688095Y-75382380D01*
X107973809Y-75382380D02*
X107973809Y-74382380D01*
X107878571Y-74525238D01*
X107783333Y-74620476D01*
X107688095Y-74668095D01*
X108878571Y-74382380D02*
X108973809Y-74382380D01*
X109069047Y-74430000D01*
X109116666Y-74477619D01*
X109164285Y-74572857D01*
X109211904Y-74763333D01*
X109211904Y-75001428D01*
X109164285Y-75191904D01*
X109116666Y-75287142D01*
X109069047Y-75334761D01*
X108973809Y-75382380D01*
X108878571Y-75382380D01*
X108783333Y-75334761D01*
X108735714Y-75287142D01*
X108688095Y-75191904D01*
X108640476Y-75001428D01*
X108640476Y-74763333D01*
X108688095Y-74572857D01*
X108735714Y-74477619D01*
X108783333Y-74430000D01*
X108878571Y-74382380D01*
X42537142Y-66492380D02*
X42203809Y-66016190D01*
X41965714Y-66492380D02*
X41965714Y-65492380D01*
X42346666Y-65492380D01*
X42441904Y-65540000D01*
X42489523Y-65587619D01*
X42537142Y-65682857D01*
X42537142Y-65825714D01*
X42489523Y-65920952D01*
X42441904Y-65968571D01*
X42346666Y-66016190D01*
X41965714Y-66016190D01*
X43489523Y-66492380D02*
X42918095Y-66492380D01*
X43203809Y-66492380D02*
X43203809Y-65492380D01*
X43108571Y-65635238D01*
X43013333Y-65730476D01*
X42918095Y-65778095D01*
X44441904Y-66492380D02*
X43870476Y-66492380D01*
X44156190Y-66492380D02*
X44156190Y-65492380D01*
X44060952Y-65635238D01*
X43965714Y-65730476D01*
X43870476Y-65778095D01*
X55237142Y-66492380D02*
X54903809Y-66016190D01*
X54665714Y-66492380D02*
X54665714Y-65492380D01*
X55046666Y-65492380D01*
X55141904Y-65540000D01*
X55189523Y-65587619D01*
X55237142Y-65682857D01*
X55237142Y-65825714D01*
X55189523Y-65920952D01*
X55141904Y-65968571D01*
X55046666Y-66016190D01*
X54665714Y-66016190D01*
X56189523Y-66492380D02*
X55618095Y-66492380D01*
X55903809Y-66492380D02*
X55903809Y-65492380D01*
X55808571Y-65635238D01*
X55713333Y-65730476D01*
X55618095Y-65778095D01*
X56570476Y-65587619D02*
X56618095Y-65540000D01*
X56713333Y-65492380D01*
X56951428Y-65492380D01*
X57046666Y-65540000D01*
X57094285Y-65587619D01*
X57141904Y-65682857D01*
X57141904Y-65778095D01*
X57094285Y-65920952D01*
X56522857Y-66492380D01*
X57141904Y-66492380D01*
X42537142Y-108402380D02*
X42203809Y-107926190D01*
X41965714Y-108402380D02*
X41965714Y-107402380D01*
X42346666Y-107402380D01*
X42441904Y-107450000D01*
X42489523Y-107497619D01*
X42537142Y-107592857D01*
X42537142Y-107735714D01*
X42489523Y-107830952D01*
X42441904Y-107878571D01*
X42346666Y-107926190D01*
X41965714Y-107926190D01*
X43489523Y-108402380D02*
X42918095Y-108402380D01*
X43203809Y-108402380D02*
X43203809Y-107402380D01*
X43108571Y-107545238D01*
X43013333Y-107640476D01*
X42918095Y-107688095D01*
X43822857Y-107402380D02*
X44441904Y-107402380D01*
X44108571Y-107783333D01*
X44251428Y-107783333D01*
X44346666Y-107830952D01*
X44394285Y-107878571D01*
X44441904Y-107973809D01*
X44441904Y-108211904D01*
X44394285Y-108307142D01*
X44346666Y-108354761D01*
X44251428Y-108402380D01*
X43965714Y-108402380D01*
X43870476Y-108354761D01*
X43822857Y-108307142D01*
X55237142Y-108402380D02*
X54903809Y-107926190D01*
X54665714Y-108402380D02*
X54665714Y-107402380D01*
X55046666Y-107402380D01*
X55141904Y-107450000D01*
X55189523Y-107497619D01*
X55237142Y-107592857D01*
X55237142Y-107735714D01*
X55189523Y-107830952D01*
X55141904Y-107878571D01*
X55046666Y-107926190D01*
X54665714Y-107926190D01*
X56189523Y-108402380D02*
X55618095Y-108402380D01*
X55903809Y-108402380D02*
X55903809Y-107402380D01*
X55808571Y-107545238D01*
X55713333Y-107640476D01*
X55618095Y-107688095D01*
X57046666Y-107735714D02*
X57046666Y-108402380D01*
X56808571Y-107354761D02*
X56570476Y-108069047D01*
X57189523Y-108069047D01*
X42537142Y-70302380D02*
X42203809Y-69826190D01*
X41965714Y-70302380D02*
X41965714Y-69302380D01*
X42346666Y-69302380D01*
X42441904Y-69350000D01*
X42489523Y-69397619D01*
X42537142Y-69492857D01*
X42537142Y-69635714D01*
X42489523Y-69730952D01*
X42441904Y-69778571D01*
X42346666Y-69826190D01*
X41965714Y-69826190D01*
X43489523Y-70302380D02*
X42918095Y-70302380D01*
X43203809Y-70302380D02*
X43203809Y-69302380D01*
X43108571Y-69445238D01*
X43013333Y-69540476D01*
X42918095Y-69588095D01*
X44394285Y-69302380D02*
X43918095Y-69302380D01*
X43870476Y-69778571D01*
X43918095Y-69730952D01*
X44013333Y-69683333D01*
X44251428Y-69683333D01*
X44346666Y-69730952D01*
X44394285Y-69778571D01*
X44441904Y-69873809D01*
X44441904Y-70111904D01*
X44394285Y-70207142D01*
X44346666Y-70254761D01*
X44251428Y-70302380D01*
X44013333Y-70302380D01*
X43918095Y-70254761D01*
X43870476Y-70207142D01*
X55237142Y-70302380D02*
X54903809Y-69826190D01*
X54665714Y-70302380D02*
X54665714Y-69302380D01*
X55046666Y-69302380D01*
X55141904Y-69350000D01*
X55189523Y-69397619D01*
X55237142Y-69492857D01*
X55237142Y-69635714D01*
X55189523Y-69730952D01*
X55141904Y-69778571D01*
X55046666Y-69826190D01*
X54665714Y-69826190D01*
X56189523Y-70302380D02*
X55618095Y-70302380D01*
X55903809Y-70302380D02*
X55903809Y-69302380D01*
X55808571Y-69445238D01*
X55713333Y-69540476D01*
X55618095Y-69588095D01*
X57046666Y-69302380D02*
X56856190Y-69302380D01*
X56760952Y-69350000D01*
X56713333Y-69397619D01*
X56618095Y-69540476D01*
X56570476Y-69730952D01*
X56570476Y-70111904D01*
X56618095Y-70207142D01*
X56665714Y-70254761D01*
X56760952Y-70302380D01*
X56951428Y-70302380D01*
X57046666Y-70254761D01*
X57094285Y-70207142D01*
X57141904Y-70111904D01*
X57141904Y-69873809D01*
X57094285Y-69778571D01*
X57046666Y-69730952D01*
X56951428Y-69683333D01*
X56760952Y-69683333D01*
X56665714Y-69730952D01*
X56618095Y-69778571D01*
X56570476Y-69873809D01*
X42537142Y-112212380D02*
X42203809Y-111736190D01*
X41965714Y-112212380D02*
X41965714Y-111212380D01*
X42346666Y-111212380D01*
X42441904Y-111260000D01*
X42489523Y-111307619D01*
X42537142Y-111402857D01*
X42537142Y-111545714D01*
X42489523Y-111640952D01*
X42441904Y-111688571D01*
X42346666Y-111736190D01*
X41965714Y-111736190D01*
X43489523Y-112212380D02*
X42918095Y-112212380D01*
X43203809Y-112212380D02*
X43203809Y-111212380D01*
X43108571Y-111355238D01*
X43013333Y-111450476D01*
X42918095Y-111498095D01*
X43822857Y-111212380D02*
X44489523Y-111212380D01*
X44060952Y-112212380D01*
X55237142Y-112212380D02*
X54903809Y-111736190D01*
X54665714Y-112212380D02*
X54665714Y-111212380D01*
X55046666Y-111212380D01*
X55141904Y-111260000D01*
X55189523Y-111307619D01*
X55237142Y-111402857D01*
X55237142Y-111545714D01*
X55189523Y-111640952D01*
X55141904Y-111688571D01*
X55046666Y-111736190D01*
X54665714Y-111736190D01*
X56189523Y-112212380D02*
X55618095Y-112212380D01*
X55903809Y-112212380D02*
X55903809Y-111212380D01*
X55808571Y-111355238D01*
X55713333Y-111450476D01*
X55618095Y-111498095D01*
X56760952Y-111640952D02*
X56665714Y-111593333D01*
X56618095Y-111545714D01*
X56570476Y-111450476D01*
X56570476Y-111402857D01*
X56618095Y-111307619D01*
X56665714Y-111260000D01*
X56760952Y-111212380D01*
X56951428Y-111212380D01*
X57046666Y-111260000D01*
X57094285Y-111307619D01*
X57141904Y-111402857D01*
X57141904Y-111450476D01*
X57094285Y-111545714D01*
X57046666Y-111593333D01*
X56951428Y-111640952D01*
X56760952Y-111640952D01*
X56665714Y-111688571D01*
X56618095Y-111736190D01*
X56570476Y-111831428D01*
X56570476Y-112021904D01*
X56618095Y-112117142D01*
X56665714Y-112164761D01*
X56760952Y-112212380D01*
X56951428Y-112212380D01*
X57046666Y-112164761D01*
X57094285Y-112117142D01*
X57141904Y-112021904D01*
X57141904Y-111831428D01*
X57094285Y-111736190D01*
X57046666Y-111688571D01*
X56951428Y-111640952D01*
X112387142Y-66492380D02*
X112053809Y-66016190D01*
X111815714Y-66492380D02*
X111815714Y-65492380D01*
X112196666Y-65492380D01*
X112291904Y-65540000D01*
X112339523Y-65587619D01*
X112387142Y-65682857D01*
X112387142Y-65825714D01*
X112339523Y-65920952D01*
X112291904Y-65968571D01*
X112196666Y-66016190D01*
X111815714Y-66016190D01*
X113339523Y-66492380D02*
X112768095Y-66492380D01*
X113053809Y-66492380D02*
X113053809Y-65492380D01*
X112958571Y-65635238D01*
X112863333Y-65730476D01*
X112768095Y-65778095D01*
X113815714Y-66492380D02*
X114006190Y-66492380D01*
X114101428Y-66444761D01*
X114149047Y-66397142D01*
X114244285Y-66254285D01*
X114291904Y-66063809D01*
X114291904Y-65682857D01*
X114244285Y-65587619D01*
X114196666Y-65540000D01*
X114101428Y-65492380D01*
X113910952Y-65492380D01*
X113815714Y-65540000D01*
X113768095Y-65587619D01*
X113720476Y-65682857D01*
X113720476Y-65920952D01*
X113768095Y-66016190D01*
X113815714Y-66063809D01*
X113910952Y-66111428D01*
X114101428Y-66111428D01*
X114196666Y-66063809D01*
X114244285Y-66016190D01*
X114291904Y-65920952D01*
X99687142Y-66492380D02*
X99353809Y-66016190D01*
X99115714Y-66492380D02*
X99115714Y-65492380D01*
X99496666Y-65492380D01*
X99591904Y-65540000D01*
X99639523Y-65587619D01*
X99687142Y-65682857D01*
X99687142Y-65825714D01*
X99639523Y-65920952D01*
X99591904Y-65968571D01*
X99496666Y-66016190D01*
X99115714Y-66016190D01*
X100068095Y-65587619D02*
X100115714Y-65540000D01*
X100210952Y-65492380D01*
X100449047Y-65492380D01*
X100544285Y-65540000D01*
X100591904Y-65587619D01*
X100639523Y-65682857D01*
X100639523Y-65778095D01*
X100591904Y-65920952D01*
X100020476Y-66492380D01*
X100639523Y-66492380D01*
X101258571Y-65492380D02*
X101353809Y-65492380D01*
X101449047Y-65540000D01*
X101496666Y-65587619D01*
X101544285Y-65682857D01*
X101591904Y-65873333D01*
X101591904Y-66111428D01*
X101544285Y-66301904D01*
X101496666Y-66397142D01*
X101449047Y-66444761D01*
X101353809Y-66492380D01*
X101258571Y-66492380D01*
X101163333Y-66444761D01*
X101115714Y-66397142D01*
X101068095Y-66301904D01*
X101020476Y-66111428D01*
X101020476Y-65873333D01*
X101068095Y-65682857D01*
X101115714Y-65587619D01*
X101163333Y-65540000D01*
X101258571Y-65492380D01*
X112387142Y-108402380D02*
X112053809Y-107926190D01*
X111815714Y-108402380D02*
X111815714Y-107402380D01*
X112196666Y-107402380D01*
X112291904Y-107450000D01*
X112339523Y-107497619D01*
X112387142Y-107592857D01*
X112387142Y-107735714D01*
X112339523Y-107830952D01*
X112291904Y-107878571D01*
X112196666Y-107926190D01*
X111815714Y-107926190D01*
X112768095Y-107497619D02*
X112815714Y-107450000D01*
X112910952Y-107402380D01*
X113149047Y-107402380D01*
X113244285Y-107450000D01*
X113291904Y-107497619D01*
X113339523Y-107592857D01*
X113339523Y-107688095D01*
X113291904Y-107830952D01*
X112720476Y-108402380D01*
X113339523Y-108402380D01*
X114291904Y-108402380D02*
X113720476Y-108402380D01*
X114006190Y-108402380D02*
X114006190Y-107402380D01*
X113910952Y-107545238D01*
X113815714Y-107640476D01*
X113720476Y-107688095D01*
X99687142Y-108402380D02*
X99353809Y-107926190D01*
X99115714Y-108402380D02*
X99115714Y-107402380D01*
X99496666Y-107402380D01*
X99591904Y-107450000D01*
X99639523Y-107497619D01*
X99687142Y-107592857D01*
X99687142Y-107735714D01*
X99639523Y-107830952D01*
X99591904Y-107878571D01*
X99496666Y-107926190D01*
X99115714Y-107926190D01*
X100068095Y-107497619D02*
X100115714Y-107450000D01*
X100210952Y-107402380D01*
X100449047Y-107402380D01*
X100544285Y-107450000D01*
X100591904Y-107497619D01*
X100639523Y-107592857D01*
X100639523Y-107688095D01*
X100591904Y-107830952D01*
X100020476Y-108402380D01*
X100639523Y-108402380D01*
X101020476Y-107497619D02*
X101068095Y-107450000D01*
X101163333Y-107402380D01*
X101401428Y-107402380D01*
X101496666Y-107450000D01*
X101544285Y-107497619D01*
X101591904Y-107592857D01*
X101591904Y-107688095D01*
X101544285Y-107830952D01*
X100972857Y-108402380D01*
X101591904Y-108402380D01*
X112387142Y-70302380D02*
X112053809Y-69826190D01*
X111815714Y-70302380D02*
X111815714Y-69302380D01*
X112196666Y-69302380D01*
X112291904Y-69350000D01*
X112339523Y-69397619D01*
X112387142Y-69492857D01*
X112387142Y-69635714D01*
X112339523Y-69730952D01*
X112291904Y-69778571D01*
X112196666Y-69826190D01*
X111815714Y-69826190D01*
X112768095Y-69397619D02*
X112815714Y-69350000D01*
X112910952Y-69302380D01*
X113149047Y-69302380D01*
X113244285Y-69350000D01*
X113291904Y-69397619D01*
X113339523Y-69492857D01*
X113339523Y-69588095D01*
X113291904Y-69730952D01*
X112720476Y-70302380D01*
X113339523Y-70302380D01*
X113672857Y-69302380D02*
X114291904Y-69302380D01*
X113958571Y-69683333D01*
X114101428Y-69683333D01*
X114196666Y-69730952D01*
X114244285Y-69778571D01*
X114291904Y-69873809D01*
X114291904Y-70111904D01*
X114244285Y-70207142D01*
X114196666Y-70254761D01*
X114101428Y-70302380D01*
X113815714Y-70302380D01*
X113720476Y-70254761D01*
X113672857Y-70207142D01*
X99687142Y-70302380D02*
X99353809Y-69826190D01*
X99115714Y-70302380D02*
X99115714Y-69302380D01*
X99496666Y-69302380D01*
X99591904Y-69350000D01*
X99639523Y-69397619D01*
X99687142Y-69492857D01*
X99687142Y-69635714D01*
X99639523Y-69730952D01*
X99591904Y-69778571D01*
X99496666Y-69826190D01*
X99115714Y-69826190D01*
X100068095Y-69397619D02*
X100115714Y-69350000D01*
X100210952Y-69302380D01*
X100449047Y-69302380D01*
X100544285Y-69350000D01*
X100591904Y-69397619D01*
X100639523Y-69492857D01*
X100639523Y-69588095D01*
X100591904Y-69730952D01*
X100020476Y-70302380D01*
X100639523Y-70302380D01*
X101496666Y-69635714D02*
X101496666Y-70302380D01*
X101258571Y-69254761D02*
X101020476Y-69969047D01*
X101639523Y-69969047D01*
X112387142Y-112212380D02*
X112053809Y-111736190D01*
X111815714Y-112212380D02*
X111815714Y-111212380D01*
X112196666Y-111212380D01*
X112291904Y-111260000D01*
X112339523Y-111307619D01*
X112387142Y-111402857D01*
X112387142Y-111545714D01*
X112339523Y-111640952D01*
X112291904Y-111688571D01*
X112196666Y-111736190D01*
X111815714Y-111736190D01*
X112768095Y-111307619D02*
X112815714Y-111260000D01*
X112910952Y-111212380D01*
X113149047Y-111212380D01*
X113244285Y-111260000D01*
X113291904Y-111307619D01*
X113339523Y-111402857D01*
X113339523Y-111498095D01*
X113291904Y-111640952D01*
X112720476Y-112212380D01*
X113339523Y-112212380D01*
X114244285Y-111212380D02*
X113768095Y-111212380D01*
X113720476Y-111688571D01*
X113768095Y-111640952D01*
X113863333Y-111593333D01*
X114101428Y-111593333D01*
X114196666Y-111640952D01*
X114244285Y-111688571D01*
X114291904Y-111783809D01*
X114291904Y-112021904D01*
X114244285Y-112117142D01*
X114196666Y-112164761D01*
X114101428Y-112212380D01*
X113863333Y-112212380D01*
X113768095Y-112164761D01*
X113720476Y-112117142D01*
X99687142Y-112212380D02*
X99353809Y-111736190D01*
X99115714Y-112212380D02*
X99115714Y-111212380D01*
X99496666Y-111212380D01*
X99591904Y-111260000D01*
X99639523Y-111307619D01*
X99687142Y-111402857D01*
X99687142Y-111545714D01*
X99639523Y-111640952D01*
X99591904Y-111688571D01*
X99496666Y-111736190D01*
X99115714Y-111736190D01*
X100068095Y-111307619D02*
X100115714Y-111260000D01*
X100210952Y-111212380D01*
X100449047Y-111212380D01*
X100544285Y-111260000D01*
X100591904Y-111307619D01*
X100639523Y-111402857D01*
X100639523Y-111498095D01*
X100591904Y-111640952D01*
X100020476Y-112212380D01*
X100639523Y-112212380D01*
X101496666Y-111212380D02*
X101306190Y-111212380D01*
X101210952Y-111260000D01*
X101163333Y-111307619D01*
X101068095Y-111450476D01*
X101020476Y-111640952D01*
X101020476Y-112021904D01*
X101068095Y-112117142D01*
X101115714Y-112164761D01*
X101210952Y-112212380D01*
X101401428Y-112212380D01*
X101496666Y-112164761D01*
X101544285Y-112117142D01*
X101591904Y-112021904D01*
X101591904Y-111783809D01*
X101544285Y-111688571D01*
X101496666Y-111640952D01*
X101401428Y-111593333D01*
X101210952Y-111593333D01*
X101115714Y-111640952D01*
X101068095Y-111688571D01*
X101020476Y-111783809D01*
X57404095Y-63968380D02*
X57404095Y-64777904D01*
X57451714Y-64873142D01*
X57499333Y-64920761D01*
X57594571Y-64968380D01*
X57785047Y-64968380D01*
X57880285Y-64920761D01*
X57927904Y-64873142D01*
X57975523Y-64777904D01*
X57975523Y-63968380D01*
X58404095Y-64063619D02*
X58451714Y-64016000D01*
X58546952Y-63968380D01*
X58785047Y-63968380D01*
X58880285Y-64016000D01*
X58927904Y-64063619D01*
X58975523Y-64158857D01*
X58975523Y-64254095D01*
X58927904Y-64396952D01*
X58356476Y-64968380D01*
X58975523Y-64968380D01*
X57404095Y-105878380D02*
X57404095Y-106687904D01*
X57451714Y-106783142D01*
X57499333Y-106830761D01*
X57594571Y-106878380D01*
X57785047Y-106878380D01*
X57880285Y-106830761D01*
X57927904Y-106783142D01*
X57975523Y-106687904D01*
X57975523Y-105878380D01*
X58356476Y-105878380D02*
X58975523Y-105878380D01*
X58642190Y-106259333D01*
X58785047Y-106259333D01*
X58880285Y-106306952D01*
X58927904Y-106354571D01*
X58975523Y-106449809D01*
X58975523Y-106687904D01*
X58927904Y-106783142D01*
X58880285Y-106830761D01*
X58785047Y-106878380D01*
X58499333Y-106878380D01*
X58404095Y-106830761D01*
X58356476Y-106783142D01*
X96012095Y-46696380D02*
X96012095Y-47505904D01*
X96059714Y-47601142D01*
X96107333Y-47648761D01*
X96202571Y-47696380D01*
X96393047Y-47696380D01*
X96488285Y-47648761D01*
X96535904Y-47601142D01*
X96583523Y-47505904D01*
X96583523Y-46696380D01*
X97488285Y-47029714D02*
X97488285Y-47696380D01*
X97250190Y-46648761D02*
X97012095Y-47363047D01*
X97631142Y-47363047D01*
X96012095Y-88606380D02*
X96012095Y-89415904D01*
X96059714Y-89511142D01*
X96107333Y-89558761D01*
X96202571Y-89606380D01*
X96393047Y-89606380D01*
X96488285Y-89558761D01*
X96535904Y-89511142D01*
X96583523Y-89415904D01*
X96583523Y-88606380D01*
X97535904Y-88606380D02*
X97059714Y-88606380D01*
X97012095Y-89082571D01*
X97059714Y-89034952D01*
X97154952Y-88987333D01*
X97393047Y-88987333D01*
X97488285Y-89034952D01*
X97535904Y-89082571D01*
X97583523Y-89177809D01*
X97583523Y-89415904D01*
X97535904Y-89511142D01*
X97488285Y-89558761D01*
X97393047Y-89606380D01*
X97154952Y-89606380D01*
X97059714Y-89558761D01*
X97012095Y-89511142D01*
%LPC*%
D13*
X66675000Y-109855000D03*
X43180000Y-41910000D03*
X112395000Y-41910000D03*
D14*
X90674000Y-97790000D03*
X90674000Y-95250000D03*
X90674000Y-92710000D03*
X90674000Y-90170000D03*
X90674000Y-87630000D03*
X90674000Y-85090000D03*
X90674000Y-82550000D03*
X90674000Y-80010000D03*
X90674000Y-77470000D03*
X90674000Y-74930000D03*
X90674000Y-72390000D03*
X90674000Y-69850000D03*
X90674000Y-67310000D03*
X90674000Y-64770000D03*
X90674000Y-62230000D03*
X90674000Y-59690000D03*
X90674000Y-57150000D03*
X90674000Y-54610000D03*
X90674000Y-52070000D03*
X65274000Y-97790000D03*
X65274000Y-95250000D03*
X65274000Y-92710000D03*
X65274000Y-90170000D03*
X65274000Y-87630000D03*
X65274000Y-85090000D03*
X65274000Y-82550000D03*
X65274000Y-80010000D03*
X65274000Y-77470000D03*
X65274000Y-74930000D03*
X65274000Y-72390000D03*
X65274000Y-69850000D03*
X65274000Y-67310000D03*
X65274000Y-64770000D03*
X65274000Y-62230000D03*
X65274000Y-59690000D03*
X65274000Y-57150000D03*
X65274000Y-54610000D03*
X65274000Y-52070000D03*
G36*
G01*
X63830000Y-47485000D02*
X63830000Y-45735000D01*
G75*
G02*
X64705000Y-44860000I875000J0D01*
G01*
X66455000Y-44860000D01*
G75*
G02*
X67330000Y-45735000I0J-875000D01*
G01*
X67330000Y-47485000D01*
G75*
G02*
X66455000Y-48360000I-875000J0D01*
G01*
X64705000Y-48360000D01*
G75*
G02*
X63830000Y-47485000I0J875000D01*
G01*
G37*
G36*
G01*
X61080000Y-42910000D02*
X61080000Y-40910000D01*
G75*
G02*
X61830000Y-40160000I750000J0D01*
G01*
X63330000Y-40160000D01*
G75*
G02*
X64080000Y-40910000I0J-750000D01*
G01*
X64080000Y-42910000D01*
G75*
G02*
X63330000Y-43660000I-750000J0D01*
G01*
X61830000Y-43660000D01*
G75*
G02*
X61080000Y-42910000I0J750000D01*
G01*
G37*
D15*
X68580000Y-41910000D03*
D16*
X81280000Y-45720000D03*
X78740000Y-45720000D03*
X76200000Y-45720000D03*
D17*
X73660000Y-45720000D03*
X73660000Y-110490000D03*
D16*
X76200000Y-110490000D03*
X78740000Y-110490000D03*
X81280000Y-110490000D03*
D17*
X38100000Y-73660000D03*
D16*
X38100000Y-76200000D03*
X38100000Y-78740000D03*
X38100000Y-81280000D03*
X118110000Y-81280000D03*
X118110000Y-78740000D03*
X118110000Y-76200000D03*
D17*
X118110000Y-73660000D03*
X55880000Y-77470000D03*
D16*
X55880000Y-74930000D03*
X99060000Y-74930000D03*
D17*
X99060000Y-77470000D03*
D16*
X38100000Y-62230000D03*
X38100000Y-59690000D03*
X38100000Y-57150000D03*
X38100000Y-54610000D03*
X38100000Y-52070000D03*
D17*
X38100000Y-49530000D03*
D16*
X38100000Y-104140000D03*
X38100000Y-101600000D03*
X38100000Y-99060000D03*
X38100000Y-96520000D03*
X38100000Y-93980000D03*
D17*
X38100000Y-91440000D03*
X118110000Y-49530000D03*
D16*
X118110000Y-52070000D03*
X118110000Y-54610000D03*
X118110000Y-57150000D03*
X118110000Y-59690000D03*
X118110000Y-62230000D03*
D17*
X118110000Y-91440000D03*
D16*
X118110000Y-93980000D03*
X118110000Y-96520000D03*
X118110000Y-99060000D03*
X118110000Y-101600000D03*
X118110000Y-104140000D03*
D18*
X78740000Y-52070000D03*
D19*
X78740000Y-62230000D03*
X82550000Y-52070000D03*
D18*
X82550000Y-62230000D03*
X78740000Y-106680000D03*
D19*
X78740000Y-96520000D03*
X82550000Y-106680000D03*
D18*
X82550000Y-96520000D03*
X41910000Y-78740000D03*
D19*
X52070000Y-78740000D03*
X41910000Y-82550000D03*
D18*
X52070000Y-82550000D03*
X113030000Y-78740000D03*
D19*
X102870000Y-78740000D03*
X113030000Y-82550000D03*
D18*
X102870000Y-82550000D03*
X52070000Y-74930000D03*
D19*
X41910000Y-74930000D03*
X113030000Y-74930000D03*
D18*
X102870000Y-74930000D03*
D19*
X48260000Y-66040000D03*
D18*
X38100000Y-66040000D03*
D19*
X60960000Y-66040000D03*
D18*
X50800000Y-66040000D03*
D19*
X48260000Y-107950000D03*
D18*
X38100000Y-107950000D03*
D19*
X60960000Y-107950000D03*
D18*
X50800000Y-107950000D03*
X38100000Y-69850000D03*
D19*
X48260000Y-69850000D03*
D18*
X50800000Y-69850000D03*
D19*
X60960000Y-69850000D03*
D18*
X38100000Y-111760000D03*
D19*
X48260000Y-111760000D03*
D18*
X50800000Y-111760000D03*
D19*
X60960000Y-111760000D03*
X107950000Y-66040000D03*
D18*
X118110000Y-66040000D03*
D19*
X95250000Y-66040000D03*
D18*
X105410000Y-66040000D03*
D19*
X107950000Y-107950000D03*
D18*
X118110000Y-107950000D03*
D19*
X95250000Y-107950000D03*
D18*
X105410000Y-107950000D03*
X118110000Y-69850000D03*
D19*
X107950000Y-69850000D03*
D18*
X105410000Y-69850000D03*
D19*
X95250000Y-69850000D03*
D18*
X118110000Y-111760000D03*
D19*
X107950000Y-111760000D03*
D18*
X105410000Y-111760000D03*
D19*
X95250000Y-111760000D03*
D14*
X44450000Y-57150000D03*
X44450000Y-49530000D03*
X44450000Y-52070000D03*
X44450000Y-54610000D03*
X44450000Y-59690000D03*
X57150000Y-52070000D03*
X57150000Y-54610000D03*
X44450000Y-62230000D03*
X57150000Y-49530000D03*
X57150000Y-62230000D03*
X57150000Y-57150000D03*
X57150000Y-59690000D03*
X57150000Y-101600000D03*
X57150000Y-99060000D03*
X57150000Y-104140000D03*
X57150000Y-91440000D03*
X44450000Y-104140000D03*
X57150000Y-96520000D03*
X57150000Y-93980000D03*
X44450000Y-101600000D03*
X44450000Y-96520000D03*
X44450000Y-93980000D03*
X44450000Y-91440000D03*
X44450000Y-99060000D03*
X110490000Y-54610000D03*
X110490000Y-62230000D03*
X110490000Y-59690000D03*
X110490000Y-57150000D03*
X110490000Y-52070000D03*
X97790000Y-59690000D03*
X97790000Y-57150000D03*
X110490000Y-49530000D03*
X97790000Y-62230000D03*
X97790000Y-49530000D03*
X97790000Y-54610000D03*
X97790000Y-52070000D03*
X97790000Y-93980000D03*
X97790000Y-96520000D03*
X97790000Y-91440000D03*
X97790000Y-104140000D03*
X110490000Y-91440000D03*
X97790000Y-99060000D03*
X97790000Y-101600000D03*
X110490000Y-93980000D03*
X110490000Y-99060000D03*
X110490000Y-101600000D03*
X110490000Y-104140000D03*
X110490000Y-96520000D03*
M02*
