G04 #@! TF.GenerationSoftware,KiCad,Pcbnew,(5.1.9)-1*
G04 #@! TF.CreationDate,2021-05-03T12:15:15+12:00*
G04 #@! TF.ProjectId,Mobile robot electronics,4d6f6269-6c65-4207-926f-626f7420656c,rev?*
G04 #@! TF.SameCoordinates,Original*
G04 #@! TF.FileFunction,Soldermask,Top*
G04 #@! TF.FilePolarity,Negative*
%FSLAX46Y46*%
G04 Gerber Fmt 4.6, Leading zero omitted, Abs format (unit mm)*
G04 Created by KiCad (PCBNEW (5.1.9)-1) date 2021-05-03 12:15:15*
%MOMM*%
%LPD*%
G01*
G04 APERTURE LIST*
%ADD10C,4.300000*%
%ADD11C,1.524000*%
%ADD12R,3.500000X3.500000*%
%ADD13O,1.700000X1.700000*%
%ADD14R,1.700000X1.700000*%
%ADD15C,1.600000*%
%ADD16O,1.600000X1.600000*%
G04 APERTURE END LIST*
D10*
X66675000Y-109855000D03*
X43180000Y-41910000D03*
X112395000Y-41910000D03*
D11*
X90674000Y-97790000D03*
X90674000Y-95250000D03*
X90674000Y-92710000D03*
X90674000Y-90170000D03*
X90674000Y-87630000D03*
X90674000Y-85090000D03*
X90674000Y-82550000D03*
X90674000Y-80010000D03*
X90674000Y-77470000D03*
X90674000Y-74930000D03*
X90674000Y-72390000D03*
X90674000Y-69850000D03*
X90674000Y-67310000D03*
X90674000Y-64770000D03*
X90674000Y-62230000D03*
X90674000Y-59690000D03*
X90674000Y-57150000D03*
X90674000Y-54610000D03*
X90674000Y-52070000D03*
X65274000Y-97790000D03*
X65274000Y-95250000D03*
X65274000Y-92710000D03*
X65274000Y-90170000D03*
X65274000Y-87630000D03*
X65274000Y-85090000D03*
X65274000Y-82550000D03*
X65274000Y-80010000D03*
X65274000Y-77470000D03*
X65274000Y-74930000D03*
X65274000Y-72390000D03*
X65274000Y-69850000D03*
X65274000Y-67310000D03*
X65274000Y-64770000D03*
X65274000Y-62230000D03*
X65274000Y-59690000D03*
X65274000Y-57150000D03*
X65274000Y-54610000D03*
X65274000Y-52070000D03*
G36*
G01*
X63830000Y-47485000D02*
X63830000Y-45735000D01*
G75*
G02*
X64705000Y-44860000I875000J0D01*
G01*
X66455000Y-44860000D01*
G75*
G02*
X67330000Y-45735000I0J-875000D01*
G01*
X67330000Y-47485000D01*
G75*
G02*
X66455000Y-48360000I-875000J0D01*
G01*
X64705000Y-48360000D01*
G75*
G02*
X63830000Y-47485000I0J875000D01*
G01*
G37*
G36*
G01*
X61080000Y-42910000D02*
X61080000Y-40910000D01*
G75*
G02*
X61830000Y-40160000I750000J0D01*
G01*
X63330000Y-40160000D01*
G75*
G02*
X64080000Y-40910000I0J-750000D01*
G01*
X64080000Y-42910000D01*
G75*
G02*
X63330000Y-43660000I-750000J0D01*
G01*
X61830000Y-43660000D01*
G75*
G02*
X61080000Y-42910000I0J750000D01*
G01*
G37*
D12*
X68580000Y-41910000D03*
D13*
X81280000Y-45720000D03*
X78740000Y-45720000D03*
X76200000Y-45720000D03*
D14*
X73660000Y-45720000D03*
X73660000Y-110490000D03*
D13*
X76200000Y-110490000D03*
X78740000Y-110490000D03*
X81280000Y-110490000D03*
D14*
X38100000Y-73660000D03*
D13*
X38100000Y-76200000D03*
X38100000Y-78740000D03*
X38100000Y-81280000D03*
X118110000Y-81280000D03*
X118110000Y-78740000D03*
X118110000Y-76200000D03*
D14*
X118110000Y-73660000D03*
X55880000Y-77470000D03*
D13*
X55880000Y-74930000D03*
X99060000Y-74930000D03*
D14*
X99060000Y-77470000D03*
D13*
X38100000Y-62230000D03*
X38100000Y-59690000D03*
X38100000Y-57150000D03*
X38100000Y-54610000D03*
X38100000Y-52070000D03*
D14*
X38100000Y-49530000D03*
D13*
X38100000Y-104140000D03*
X38100000Y-101600000D03*
X38100000Y-99060000D03*
X38100000Y-96520000D03*
X38100000Y-93980000D03*
D14*
X38100000Y-91440000D03*
X118110000Y-49530000D03*
D13*
X118110000Y-52070000D03*
X118110000Y-54610000D03*
X118110000Y-57150000D03*
X118110000Y-59690000D03*
X118110000Y-62230000D03*
D14*
X118110000Y-91440000D03*
D13*
X118110000Y-93980000D03*
X118110000Y-96520000D03*
X118110000Y-99060000D03*
X118110000Y-101600000D03*
X118110000Y-104140000D03*
D15*
X78740000Y-52070000D03*
D16*
X78740000Y-62230000D03*
X82550000Y-52070000D03*
D15*
X82550000Y-62230000D03*
X78740000Y-106680000D03*
D16*
X78740000Y-96520000D03*
X82550000Y-106680000D03*
D15*
X82550000Y-96520000D03*
X41910000Y-78740000D03*
D16*
X52070000Y-78740000D03*
X41910000Y-82550000D03*
D15*
X52070000Y-82550000D03*
X113030000Y-78740000D03*
D16*
X102870000Y-78740000D03*
X113030000Y-82550000D03*
D15*
X102870000Y-82550000D03*
X52070000Y-74930000D03*
D16*
X41910000Y-74930000D03*
X113030000Y-74930000D03*
D15*
X102870000Y-74930000D03*
D16*
X48260000Y-66040000D03*
D15*
X38100000Y-66040000D03*
D16*
X60960000Y-66040000D03*
D15*
X50800000Y-66040000D03*
D16*
X48260000Y-107950000D03*
D15*
X38100000Y-107950000D03*
D16*
X60960000Y-107950000D03*
D15*
X50800000Y-107950000D03*
X38100000Y-69850000D03*
D16*
X48260000Y-69850000D03*
D15*
X50800000Y-69850000D03*
D16*
X60960000Y-69850000D03*
D15*
X38100000Y-111760000D03*
D16*
X48260000Y-111760000D03*
D15*
X50800000Y-111760000D03*
D16*
X60960000Y-111760000D03*
X107950000Y-66040000D03*
D15*
X118110000Y-66040000D03*
D16*
X95250000Y-66040000D03*
D15*
X105410000Y-66040000D03*
D16*
X107950000Y-107950000D03*
D15*
X118110000Y-107950000D03*
D16*
X95250000Y-107950000D03*
D15*
X105410000Y-107950000D03*
X118110000Y-69850000D03*
D16*
X107950000Y-69850000D03*
D15*
X105410000Y-69850000D03*
D16*
X95250000Y-69850000D03*
D15*
X118110000Y-111760000D03*
D16*
X107950000Y-111760000D03*
D15*
X105410000Y-111760000D03*
D16*
X95250000Y-111760000D03*
D11*
X44450000Y-57150000D03*
X44450000Y-49530000D03*
X44450000Y-52070000D03*
X44450000Y-54610000D03*
X44450000Y-59690000D03*
X57150000Y-52070000D03*
X57150000Y-54610000D03*
X44450000Y-62230000D03*
X57150000Y-49530000D03*
X57150000Y-62230000D03*
X57150000Y-57150000D03*
X57150000Y-59690000D03*
X57150000Y-101600000D03*
X57150000Y-99060000D03*
X57150000Y-104140000D03*
X57150000Y-91440000D03*
X44450000Y-104140000D03*
X57150000Y-96520000D03*
X57150000Y-93980000D03*
X44450000Y-101600000D03*
X44450000Y-96520000D03*
X44450000Y-93980000D03*
X44450000Y-91440000D03*
X44450000Y-99060000D03*
X110490000Y-54610000D03*
X110490000Y-62230000D03*
X110490000Y-59690000D03*
X110490000Y-57150000D03*
X110490000Y-52070000D03*
X97790000Y-59690000D03*
X97790000Y-57150000D03*
X110490000Y-49530000D03*
X97790000Y-62230000D03*
X97790000Y-49530000D03*
X97790000Y-54610000D03*
X97790000Y-52070000D03*
X97790000Y-93980000D03*
X97790000Y-96520000D03*
X97790000Y-91440000D03*
X97790000Y-104140000D03*
X110490000Y-91440000D03*
X97790000Y-99060000D03*
X97790000Y-101600000D03*
X110490000Y-93980000D03*
X110490000Y-99060000D03*
X110490000Y-101600000D03*
X110490000Y-104140000D03*
X110490000Y-96520000D03*
M02*
